<?xml version="1.0" encoding="utf-8"?>
<!-- Generator: Adobe Illustrator 27.9.4, SVG Export Plug-In . SVG Version: 9.03 Build 54784)  -->
<svg version="1.1" id="Calque_1" xmlns="http://www.w3.org/2000/svg" xmlns:xlink="http://www.w3.org/1999/xlink" x="0px" y="0px"
	 viewBox="0 0 1621.5 353.8" style="enable-background:new 0 0 1621.5 353.8;" xml:space="preserve">
<style type="text/css">
	.st0{fill:#5BBDD3;}
</style>
<polygon class="st0" points="1556.6,242.1 1556.6,154.4 1494.3,154.4 1494.3,197 1430.1,197 1430.1,154.4 1405.3,154.4 
	1403.7,154.4 1399.6,154.4 1399.6,143.3 1347.8,143.3 1347.8,154.4 1326.6,154.4 1326.6,111.2 1299.7,111.2 1299.7,96.6 1271.5,94 
	1271.5,73.9 1236.4,77.7 1236.4,90.7 1195.4,87 1195.4,111.2 1168.5,111.2 1168.5,148.2 1135.2,148.2 1135.2,242.1 1094,242.1 
	1094,208 1031.9,208 1031.9,181.7 1017,183.3 1017,168.7 981.9,172.4 981.9,187 967,188.6 967,208 935.9,208 935.9,228.6 
	843.7,228.6 814.3,228.6 807.2,228.6 779.7,228.6 685.6,228.6 685.6,208 654.5,208 654.5,188.6 639.6,187 639.6,172.4 604.5,168.7 
	604.5,183.3 589.6,181.7 589.6,208 527.5,208 527.5,242.1 486.3,242.1 486.3,148.2 453,148.2 453,111.2 426.1,111.2 426.1,87 
	385.1,90.7 385.1,77.7 350,73.9 350,94 321.8,96.6 321.8,111.2 294.9,111.2 294.9,154.4 273.7,154.4 273.7,143.3 221.9,143.3 
	221.9,154.4 217.8,154.4 216.2,154.4 191.4,154.4 191.4,197 127.2,197 127.2,154.4 64.9,154.4 64.9,242.1 0,242.1 0,353.8 
	64.9,353.8 810.8,353.8 1556.6,353.8 1621.5,353.8 1621.5,242.1 "/>
</svg>
