<?xml version="1.0" encoding="utf-8"?>
<!-- Generator: Adobe Illustrator 27.9.4, SVG Export Plug-In . SVG Version: 9.03 Build 54784)  -->
<svg version="1.1" xmlns="http://www.w3.org/2000/svg" xmlns:xlink="http://www.w3.org/1999/xlink" x="0px" y="0px"
	 viewBox="0 0 1621.5 353.8" style="enable-background:new 0 0 1621.5 353.8;" xml:space="preserve">
<style type="text/css">
	.st0{fill:#6BD0E8;}
</style>
<g id="Calque_2">
</g>
<g id="Calque_1">
	<polygon class="st0" points="1592.5,34.1 1592.5,141.4 1560.4,141.4 1560.4,183.5 1514.6,183.5 1514.6,208.4 1491.7,208.4 
		1491.7,111.6 1477.5,111.6 1477.5,99.3 1426.5,99.3 1426.5,111.6 1405.6,111.6 1405.6,63.8 1379.1,63.8 1379.1,47.7 1351.3,44.8 
		1351.3,22.7 1316.7,26.8 1316.7,41.3 1276.2,37.1 1276.2,63.8 1249.7,63.8 1249.7,104.8 1216.9,104.8 1216.9,208.4 1176.3,208.4 
		1176.3,170.8 1115.1,170.8 1115.1,141.8 1100.4,143.5 1100.4,127.4 1065.8,131.5 1065.8,147.6 1051.2,149.3 1051.2,170.8 
		1020.5,170.8 1020.5,193.5 975.4,193.5 975.4,178.2 855.5,178.2 855.5,154.4 824.9,154.4 824.9,132.1 810.2,130.3 810.2,113.5 
		775.6,109.2 775.6,126 761,124.2 761,154.4 699.7,154.4 699.7,193.7 659.1,193.7 659.1,85.6 626.3,85.6 626.3,42.9 599.8,42.9 
		599.8,15 559.4,19.4 559.4,4.3 524.7,0 524.7,23.1 497,26.1 497,42.9 470.5,42.9 470.5,92.7 449.6,92.7 449.6,79.9 398.5,79.9 
		398.5,92.7 384.3,92.7 384.3,193.7 361.4,193.7 361.4,167.7 315.6,167.7 315.6,123.8 283.5,123.8 283.5,11.8 205.6,0.2 
		205.6,123.8 177.7,123.8 177.7,85.6 145.7,85.6 145.7,69.2 111,64.9 111,85.6 99.8,85.6 99.8,122.4 74.4,122.4 74.4,92.7 0,92.7 
		0,353.8 897.2,353.8 978.8,353.8 1621.5,353.8 1621.5,29.9 	"/>
</g>
</svg>
