<?xml version="1.0" encoding="utf-8"?>
<!-- Generator: Adobe Illustrator 27.9.4, SVG Export Plug-In . SVG Version: 9.03 Build 54784)  -->
<svg version="1.1" id="Calque_1" xmlns="http://www.w3.org/2000/svg" xmlns:xlink="http://www.w3.org/1999/xlink" x="0px" y="0px"
	 viewBox="0 0 2502 404" style="enable-background:new 0 0 2502 404;" xml:space="preserve">
<style type="text/css">
	.st0{fill:#374457;}
	.st1{fill:#C72C3C;}
	.st2{fill:#FFFFFF;}
</style>
<g>
	<path class="st0" d="M2253.6,166c-334.2,4.1-668.4,8.2-1002.6,4.5c-334.2,3.7-668.4-0.4-1002.6-4.5C165.6,165,82.8,164,0,163v85.3
		c287.2,1.9,574.4,3.9,861.5,5.8c129.8,0.9,259.8,1.7,389.5-4.2c129.6,5.9,259.6,5.1,389.4,4.2c287.2-1.9,574.4-3.9,861.6-5.8V163
		C2419.2,164,2336.4,165,2253.6,166z"/>
</g>
<g>
	<path class="st1" d="M1865.8,334.8c-36.8,4.7-73.4,11.8-110.3,15c-42.2,3.6-84.7,1.9-127,0.3c-125.8-4.9-251.6-9.9-377.4-14.9
		c-125.8,5-251.6,9.9-377.4,14.9c-42.3,1.7-84.8,3.3-127-0.3c-37-3.2-73.5-10.3-110.3-15C425.6,307.9,210.2,362.3,0,345.7v57.8
		c69.8,1.7,144.4-1.7,179.1-3.7c108.4-6.2,217.2-16.8,326.1-12.3c66.6,2.8,131.2,11.2,197.6,14.6c182.2,9.4,365.5-19,548.1-15.6
		c182.6-3.4,365.9,24.9,548.1,15.6c66.4-3.4,131-11.8,197.6-14.6c108.9-4.6,217.7,6.1,326.1,12.3c34.7,2,109.4,5.4,179.1,3.7v-57.8
		C2291.8,362.3,2076.4,307.9,1865.8,334.8z"/>
</g>
<g>
	<path class="st1" d="M2322.9,4.2c-108.4,6.2-217.2,16.8-326.1,12.3c-66.6-2.8-131.2-11.2-197.6-14.6
		c-182.2-9.4-365.5,19-548.1,15.6C1068.4,20.9,885-7.5,702.9,1.9c-66.4,3.4-131,11.8-197.6,14.6c-108.9,4.5-217.7-6.1-326.1-12.3
		C144.4,2.2,69.8-1.2,0,0.5v55.9c167.1-20.3,340,26.3,510,16.9c40.4-2.2,80.5-7.7,120.8-10.9C837.1,46,1044.5,87,1251,78.9
		c206.5,8.1,413.9-33,620.2-16.5c40.3,3.2,80.4,8.6,120.8,10.9c169.9,9.4,342.8-37.2,510-16.9V0.5C2432.2-1.2,2357.6,2.2,2322.9,4.2
		z"/>
</g>
<g>
	<path class="st2" d="M1992,73.3c-40.4-2.2-80.5-7.7-120.8-10.9C1664.9,46,1457.5,87,1251,78.9C1044.5,87,837.1,46,630.8,62.5
		c-40.3,3.2-80.4,8.6-120.8,10.9C340,82.8,167.1,36.2,0,56.4V163c82.8,1,165.6,2,248.4,3.1c334.2,4.1,668.4,8.2,1002.6,4.5
		c334.2,3.7,668.4-0.4,1002.6-4.5c82.8-1,165.6-2,248.4-3.1V56.4C2334.9,36.2,2162,82.8,1992,73.3z"/>
</g>
<g>
	<path class="st2" d="M1640.4,254.1c-129.8,0.9-259.8,1.7-389.4-4.2c-129.6,5.9-259.6,5.1-389.5,4.2c-287.2-1.9-574.4-3.9-861.5-5.8
		v97.3c210.2,16.6,425.6-37.7,636.2-10.9c36.8,4.7,73.3,11.8,110.3,15c42.2,3.6,84.7,1.9,127,0.3c125.8-4.9,251.6-9.9,377.4-14.9
		c125.8,5,251.6,9.9,377.4,14.9c42.3,1.7,84.8,3.3,127-0.3c37-3.2,73.5-10.3,110.3-15c210.6-26.8,426.1,27.6,636.2,10.9v-97.3
		C2214.8,250.3,1927.6,252.2,1640.4,254.1z"/>
</g>
<g>
	<g>
		<polygon class="st2" points="36.5,175.8 43.8,198.3 67.5,198.3 48.4,212.2 55.7,234.7 36.5,220.8 17.4,234.7 24.7,212.2 
			5.6,198.3 29.2,198.3 		"/>
		<polygon class="st2" points="143,175.8 150.3,198.3 173.9,198.3 154.8,212.2 162.1,234.7 143,220.8 123.8,234.7 131.1,212.2 
			112,198.3 135.7,198.3 		"/>
		<polygon class="st2" points="254.2,176.8 261.5,199.3 285.2,199.3 266,213.2 273.3,235.7 254.2,221.8 235.1,235.7 242.4,213.2 
			223.2,199.3 246.9,199.3 		"/>
		<polygon class="st2" points="370.2,177.7 377.5,200.2 401.1,200.2 382,214.1 389.3,236.6 370.2,222.7 351,236.6 358.3,214.1 
			339.2,200.2 362.9,200.2 		"/>
		<polygon class="st2" points="486.5,180.6 493.8,203.1 517.5,203.1 498.3,217.1 505.7,239.6 486.5,225.6 467.4,239.6 474.7,217.1 
			455.5,203.1 479.2,203.1 		"/>
		<polygon class="st2" points="593,180.6 600.3,203.1 623.9,203.1 604.8,217.1 612.1,239.6 593,225.6 573.8,239.6 581.1,217.1 
			562,203.1 585.7,203.1 		"/>
		<polygon class="st2" points="704.2,181.6 711.5,204.1 735.2,204.1 716,218 723.3,240.5 704.2,226.6 685.1,240.5 692.4,218 
			673.2,204.1 696.9,204.1 		"/>
		<polygon class="st2" points="820.2,182.6 827.5,205.1 851.1,205.1 832,219 839.3,241.5 820.2,227.6 801,241.5 808.3,219 
			789.2,205.1 812.8,205.1 		"/>
		<polygon class="st2" points="933.6,182.6 940.9,205.1 964.6,205.1 945.4,219 952.7,241.5 933.6,227.6 914.5,241.5 921.8,219 
			902.6,205.1 926.3,205.1 		"/>
		<polygon class="st2" points="1052.1,181.6 1059.5,204.1 1083.1,204.1 1064,218 1071.3,240.5 1052.1,226.6 1033,240.5 1040.3,218 
			1021.2,204.1 1044.8,204.1 		"/>
		<polygon class="st2" points="1171,181.6 1178.3,204.1 1201.9,204.1 1182.8,218 1190.1,240.5 1171,226.6 1151.8,240.5 1159.2,218 
			1140,204.1 1163.7,204.1 		"/>
	</g>
	<g>
		<polygon class="st2" points="2420.2,175.8 2412.9,198.3 2389.2,198.3 2408.3,212.2 2401,234.7 2420.2,220.8 2439.3,234.7 
			2432,212.2 2451.1,198.3 2427.5,198.3 		"/>
		<polygon class="st2" points="2313.7,175.8 2306.4,198.3 2282.7,198.3 2301.9,212.2 2294.6,234.7 2313.7,220.8 2332.9,234.7 
			2325.5,212.2 2344.7,198.3 2321,198.3 		"/>
		<polygon class="st2" points="2202.5,176.8 2195.2,199.3 2171.5,199.3 2190.7,213.2 2183.3,235.7 2202.5,221.8 2221.6,235.7 
			2214.3,213.2 2233.4,199.3 2209.8,199.3 		"/>
		<polygon class="st2" points="2086.5,177.7 2079.2,200.2 2055.6,200.2 2074.7,214.1 2067.4,236.6 2086.5,222.7 2105.7,236.6 
			2098.3,214.1 2117.5,200.2 2093.8,200.2 		"/>
		<polygon class="st2" points="1970.2,180.6 1962.9,203.1 1939.2,203.1 1958.3,217.1 1951,239.6 1970.2,225.6 1989.3,239.6 
			1982,217.1 2001.1,203.1 1977.5,203.1 		"/>
		<polygon class="st2" points="1863.7,180.6 1856.4,203.1 1832.8,203.1 1851.9,217.1 1844.6,239.6 1863.7,225.6 1882.9,239.6 
			1875.6,217.1 1894.7,203.1 1871,203.1 		"/>
		<polygon class="st2" points="1752.5,181.6 1745.2,204.1 1721.5,204.1 1740.7,218 1733.4,240.5 1752.5,226.6 1771.6,240.5 
			1764.3,218 1783.5,204.1 1759.8,204.1 		"/>
		<polygon class="st2" points="1636.5,182.6 1629.2,205.1 1605.6,205.1 1624.7,219 1617.4,241.5 1636.5,227.6 1655.7,241.5 
			1648.4,219 1667.5,205.1 1643.8,205.1 		"/>
		<polygon class="st2" points="1523.1,182.6 1515.8,205.1 1492.1,205.1 1511.3,219 1504,241.5 1523.1,227.6 1542.2,241.5 
			1534.9,219 1554.1,205.1 1530.4,205.1 		"/>
		<polygon class="st2" points="1404.5,181.6 1397.2,204.1 1373.6,204.1 1392.7,218 1385.4,240.5 1404.5,226.6 1423.7,240.5 
			1416.4,218 1435.5,204.1 1411.9,204.1 		"/>
		<polygon class="st2" points="1285.7,181.6 1278.4,204.1 1254.7,204.1 1273.9,218 1266.6,240.5 1285.7,226.6 1304.8,240.5 
			1297.5,218 1316.7,204.1 1293,204.1 		"/>
	</g>
</g>
</svg>
