<?xml version="1.0" encoding="utf-8"?>
<!-- Generator: Adobe Illustrator 27.9.4, SVG Export Plug-In . SVG Version: 9.03 Build 54784)  -->
<svg version="1.1" id="Calque_1" xmlns="http://www.w3.org/2000/svg" xmlns:xlink="http://www.w3.org/1999/xlink" x="0px" y="0px"
	 viewBox="0 0 1920 56.7" style="enable-background:new 0 0 1920 56.7;" xml:space="preserve">
<style type="text/css">
	.st0{fill:#157C4C;}
</style>
<path class="st0" d="M1920,56.7V10.5c-0.5,0-1,0-1.5,0.2c-4.1,0.8-2.9,4.4-8.4,4.7c-5.5,0.3-7.7-4.5-11.6-6.6
	c-8.2-4.4-17.7-2.9-26.8-2.9c-6-0.2-9.7,0-15.2,1.8c-4.3,1.5-7,3.9-11.9,3.9c-10.1,0-16.4-9-26.6-9.9c-9.4-0.8-9.4,4.2-14,10.8
	c-11.6,16.7-29.5,9.3-48.3,7.5c-7.2-0.6-13,1.5-20.1,0.6c-7.8-0.9-20-6.6-27.5-3.3c-6,2.7-5.6,13.1-13.3,14.4
	c-5.1,0.9-19.6-2.1-24.2-3.6c-7.2-2.4-13.5-6.5-21.2-7.4c-11.3-1.4-18.9-3.6-29.2-9c-5.1-2.7-6.5-5-12.3-3.9
	c-3.4,0.6-5.1,2.4-8.9,2.3c-12.5-0.3-10.2-1.7-17.9,6.9c-4.3,5-13.8,13.1-21.2,11c-6-1.7-13.1-13.7-14.8-18.6
	c-1.7-5,0.2-9.3-7.2-9.3c-9,0-13.1,10.2-21,11.9c-6.3,1.4-8.9-2.3-14.3-3.3c-5.1-0.9-3.9-0.9-9.9-0.6c-5.3,0.2-8,0.5-13.1,0
	c-8.4-0.6-7.7,1.5-14.3,3.3c-8.2,2.3-10.6-0.2-17.7,5c-8.5,6-12.3,7.5-22.5,3.9c-7.2-2.6-10.9-4.8-18.8-3.9
	c-10.4,1.2-21,2.3-31.9,1.7c-9.2-0.5-16.2-5.3-24.4-0.3c-8.9,5.3-9.2,7.4-21.8,4.8c-5.5-1.1-9.9-0.6-15.2-1.4
	c-8-0.9-16.2-8.6-24.1-8.1c-3.6,0.2-6.1,4.1-9.6,4.5c-4.9,0.5-9-1.8-13.5-3.3c-9.4-3.2-17.7-6-27.8-5.4c-7.7,0.5-17.1,0.2-24.1,2
	c-6.8,1.7-8.2,3.2-15.9,2.1c-3.8-0.5-7.5-1.5-11.4-1.1c-10.7,1.1-17.4,6.3-28.5,5.4c-9.7-0.8-16.4,0.9-25.8-2.3
	c-5.8-2-2.7-2.6-7.3-2.6c-2.7,2.6-6.1,4.1-10.1,4.5c-2.4-0.3-4.8-0.6-7-0.9c-5.5-0.6-10.6-0.3-15-2.9c-6.3-3.5-7.7-10.5-15.9-12.2
	c-6.3,4.8-7.8,5.3-16.9,5.1c-9.6-0.2-11.8,2.3-20.3,6c-8.7,3.9-16.2,5.4-25.6,3c-5.3-1.4-9-2.6-14.5-2.6c-5.1,0.2-8.4,2.6-14.2,1.1
	c-4.3-1.1-6.5-3.5-11.3-2.7c-4.3,0.6-7.3,4.1-12.3,3.6c-0.7,0-1.4-0.2-1.9-0.3c-0.5,0.2-1.2,0.2-1.9,0.3c-4.9,0.5-8-3-12.3-3.6
	c-4.8-0.8-7,1.7-11.3,2.7c-6,1.5-9-0.9-14.2-1.1c-5.5-0.2-9.2,1.2-14.5,2.6c-9.4,2.4-17.1,0.9-25.6-3c-8.5-3.9-10.7-6.2-20.3-6
	c-9,0.2-10.6-0.3-16.9-5.1c-8.2,1.8-9.6,8.7-15.9,12.2c-4.4,2.6-9.7,2.3-15,2.9c-2.4,0.3-4.8,0.6-7,0.9c-3.9-0.5-7.3-2-10.1-4.5
	c-4.6,0-1.5,0.6-7.3,2.6c-9.4,3.2-16,1.7-25.8,2.3c-11.1,0.8-17.7-4.5-28.5-5.4c-3.9-0.5-7.5,0.6-11.4,1.1c-7.7,1.1-9-0.5-15.9-2.1
	c-7-1.8-16.4-1.5-24.1-2c-10.1-0.6-18.4,2.3-27.8,5.4c-4.6,1.5-8.5,3.8-13.5,3.3c-3.4-0.3-6-4.4-9.6-4.5c-7.8-0.5-16,7.2-24.1,8.1
	c-5.3,0.6-9.9,0.2-15.2,1.4c-12.5,2.6-13,0.6-21.8-4.8c-8.2-4.8-15.2-0.2-24.4,0.3c-10.7,0.6-21.5-0.5-31.9-1.7
	c-7.8-0.9-11.8,1.4-18.8,3.9c-10.2,3.8-14,2.1-22.5-3.9c-7.2-5.1-9.6-2.7-17.7-5c-6.7-1.8-6-3.9-14.3-3.3c-5.1,0.5-7.8,0.2-13.1,0
	c-6-0.2-4.8-0.3-9.9,0.6c-5.3,1.1-8,4.7-14.3,3.3c-7.8-1.7-11.9-11.7-21-11.9c-7.5,0-5.5,4.5-7.2,9.3c-1.7,4.8-9,17-14.8,18.6
	c-7.5,2.1-16.9-6-21.2-11c-7.5-8.6-5.3-7.4-17.9-6.9c-3.8,0.2-5.5-1.7-8.9-2.3c-5.8-1.1-7.2,1.2-12.3,3.9c-10.2,5.4-17.9,7.7-29.2,9
	c-7.8,0.9-14,5-21.2,7.4c-4.4,1.5-19.1,4.7-24.2,3.6c-7.7-1.5-7.3-11.9-13.3-14.4c-7.5-3.3-19.6,2.4-27.5,3.3
	c-7,0.9-13-1.2-20.1-0.6c-18.8,1.8-36.7,9.2-48.3-7.5c-4.6-6.6-4.6-11.6-14-10.8c-10.9,0.9-17.2,10.1-27.3,9.9
	c-4.9,0-7.7-2.6-11.9-3.9c-5.5-2-9.2-2-15.2-1.8c-9.2,0-18.6-1.5-27,2.9c-4.1,2.1-6.1,6.9-11.6,6.6c-5.5-0.3-4.3-3.9-8.4-4.7
	c-0.5,0-1-0.2-1.5-0.2v46.1H1920z"/>
</svg>
