<?xml version="1.0" encoding="utf-8"?>
<!-- Generator: Adobe Illustrator 27.9.4, SVG Export Plug-In . SVG Version: 9.03 Build 54784)  -->
<svg version="1.1" id="Calque_1" xmlns="http://www.w3.org/2000/svg" xmlns:xlink="http://www.w3.org/1999/xlink" x="0px" y="0px"
	 viewBox="0 0 1354.1 82" style="enable-background:new 0 0 1354.1 82;" xml:space="preserve">
<style type="text/css">
	.st0{fill:#283C8E;}
</style>
<path class="st0" d="M1353.4,69.3c-2.8-14.1-9.3-32.9-24.1-39.7c2.2,5.2,2.6,17.9,3.6,30.5c-3.5-6.2-6.1-12.7-7.6-19.8
	c-2.3,5.4-3.8,10.4-4.6,15.1c-1.1-1.7-2.3-3.4-3.7-5.1c-1,3.6-2.6,7.3-4.3,11.2c1.2-14.4,1.3-28.2,3.8-37.7
	c-7.5,5.6-13,12.9-17,20.6c-1.5-4.8-3.3-9.8-5.5-14.7c-1.9,8.3-5,17.2-8.1,27.1c1-14.3,1.2-27.9,3-37.4c-5.8,7.1-9.8,16.4-12.6,26
	c-3.1-6-5.4-12.2-6.7-19c-2.2,5-3.6,9.6-4.7,14c-1.8-9.7-2.9-20.4-2.9-32.8c-5.4,9-8.2,20.6-9.7,32.1c-4-6.9-9.3-13.9-16.2-20.8
	c3.3,9.2,2,19.2,1.2,30.4c-1.3-0.7-2.7-1.4-4.2-2.1c2.2,5.3,2.9,10.4,3.8,16.2c0,0.4,0,0.7,0.1,1.1c-9.5-11.3-16.4-23.5-19.2-37.5
	c-5.8,13.3-7.1,24.6-5.4,33.6c-2.1-0.8-4.3-1.4-6.6-1.7c-0.9-0.9-1.9-1.7-2.9-2.6c2.3-5,4-10.5,4.4-17.1c-2,2.7-4.3,4.8-7,6.6
	c-0.7-6.3-2.5-12.3-6.1-17.4c-0.4,4.7-2.8,11.5-5.4,19c-0.5-0.2-0.9-0.5-1.5-0.7c0.4,0.8,0.7,1.5,0.9,2.3c-0.5,1.3-0.9,2.8-1.4,4.1
	c-1.4,0.7-2.8,1.4-4.3,2.2c2.3-11.2,2.8-23.7-2.1-35.8c-1.5,12.6-9.3,23.9-15.6,37.8c1.6-13.8,1.3-28.6-4.3-39.1
	c-0.9,8-5.2,21.1-9.4,34.8c-1-18.3-2.8-33.5-2.3-49.6c-6.2,10.1-10.4,20.8-13.1,31.4c-3.7-4.7-8.2-8.5-13.7-11
	c2.7,6.6,3.2,22.9,4.5,38.8c-1.7,1.7-3.3,3.4-4.7,5.1c-0.4-19.1-2.6-34-1.8-49.8c-10.2,14.3-14.9,30.1-17,43.9
	c-1.5-2.3-3.1-4.6-4.9-7c-1,3.6-2.6,7.3-4.3,11.2c1.2-14.4,1.3-28.2,3.8-37.7c-7.5,5.6-13,12.9-17,20.6c-1.5-4.8-3.3-9.8-5.5-14.7
	c-1.9,8.3-5,17.2-8.1,27.1c1-14.3,1.2-27.9,3-37.4c-6.8,8.2-11.2,19.7-13.9,30.8c-3-14.1-8.5-28.8-18.2-37.6
	c2,16.9,4.7,33.3,5.8,48.1c-3.5-4.4-7.9-9-13.5-13.7c2.2,5,3.4,9.5,4.8,14.6c-4.7-5-11.3-10-20.7-14.4c2.6,6.3,3.2,12.5,4.4,19.7
	c-2-1.1-4.2-2-6.4-2.7c-4.4-14.1-9.3-26.4-12-37.5c-2.4,5-4.4,9.9-5.9,14.7c-4.2-7.7-10-14.9-18-20.6c2.6,9.5,2.7,23.3,4,37.7
	c-1.8-3.9-3.5-7.6-4.5-11.2c-2,2.3-3.6,4.7-5.2,6.9c-2.1-13.8-7.1-29.4-17.9-43.8c0.9,15.8-1.5,30.7-1.9,49.8
	c-1.5-1.7-3.1-3.4-5-5.1c1.4-15.9,1.9-32.3,4.8-38.8c-5.7,2.6-10.5,6.4-14.4,11c-3-10.5-7.4-21.2-13.9-31.4
	c0.6,16.1-1.3,31.4-2.4,49.6c-4.4-13.8-9-26.8-9.9-34.8c-5.9,10.5-6.3,25.3-4.6,39.1c-6.7-13.9-14.8-25.1-16.4-37.8
	c-5.2,12-4.7,24.6-2.3,35.8c-1.5-0.8-3.1-1.5-4.5-2.2c-0.5-1.4-1-2.8-1.5-4.1c0.3-0.8,0.6-1.5,0.9-2.3c-0.6,0.2-1,0.5-1.5,0.7
	c-2.8-7.6-5.3-14.4-5.7-19c-3.9,5.1-5.8,11.2-6.5,17.4c-2.8-1.8-5.3-3.9-7.4-6.6c0.5,6.6,2.3,12.2,4.7,17.1
	c-1.1,0.9-2.1,1.7-3.1,2.6c-2.5,0.4-4.8,0.9-7,1.7c1.8-9,0.4-20.3-5.7-33.6c-3,14.1-10.4,26.4-20.6,37.8c1.1-6.1,1.7-11.7,4.2-17.3
	c-5.4,2.3-9.8,5-13.7,7.6c-0.6-13.6-3.3-25.7,0.9-36.5c-8.5,8.1-14.5,16.3-19,24.2c-4.4-14.6-10.9-29.4-19.6-39
	c3.8,16,5.5,29.9,6.1,42.6c-3-9.8-7.3-19.4-13.6-26.7c1.7,9.5,2.1,23,3.2,37.4c-3.3-9.8-6.6-18.7-8.6-27.1c-2.4,5-4.4,9.9-5.9,14.7
	c-4.2-7.7-10-14.9-18-20.6c2.6,9.5,2.7,23.3,4,37.7c-1.8-3.9-3.5-7.6-4.5-11.2c-2,2.5-3.8,4.9-5.4,7.2C737,41,733,25.4,725.7,14.9
	c0.8,5,1.2,11.2,1.7,17.9c-4.4-6.6-10-12.9-17.1-18.4c3.7,13.3,4.9,26.5,7.6,42.2c-4.1-4.6-8.7-9-13.6-12.4
	c-4.4-9.1-10.7-17.9-20-24.5c2.6,9.5,2.7,23.4,4,37.9c-2.6-5.5-6-11.4-10.2-17.1c-0.2,5.4-1,11.3-1.8,17.5c-0.9-6.2-1.6-12-1.8-17.5
	c-4.2,5.8-7.6,11.7-10.2,17.1c1.3-14.4,1.4-28.4,4-37.9c-9.3,6.6-15.6,15.4-20,24.5c-4.9,3.4-9.5,7.8-13.6,12.4
	c2.8-15.7,3.9-29,7.6-42.2c-7.1,5.4-12.6,11.8-17.1,18.4c0.4-6.8,0.9-13,1.7-17.9c-7.3,10.5-11.3,26.2-13.5,39.7
	c-1.5-2.3-3.3-4.7-5.4-7.2c-1.1,3.6-2.7,7.3-4.5,11.2c1.3-14.4,1.4-28.2,4-37.7c-7.9,5.6-13.8,12.9-18,20.6
	c-1.5-4.8-3.5-9.8-5.9-14.7c-2,8.3-5.2,17.2-8.6,27.1c1-14.3,1.4-27.9,3.2-37.4c-6.3,7.2-10.6,16.8-13.6,26.7
	c0.5-12.8,2.3-26.8,6.1-42.6c-8.3,9.3-14.8,24.3-19.2,38.9c-3.8-8-9.8-16.3-18.4-24.4c4.2,10.8,1.5,22.9,0.9,36.5
	c-3.8-2.6-8.3-5.2-13.7-7.6c2.5,5.6,3.2,11.2,4.2,17.3C514.4,49.9,507,37.8,504,23.5c-6.1,13.3-7.5,24.6-5.7,33.6
	c-2.3-0.8-4.6-1.4-7-1.7c-1-0.9-2-1.7-3.1-2.6c2.5-5,4.2-10.5,4.7-17.1c-2,2.7-4.6,4.8-7.4,6.6c-0.7-6.3-2.6-12.3-6.5-17.4
	c-0.4,4.7-2.9,11.5-5.7,19c-0.5-0.2-1-0.5-1.5-0.7c0.4,0.8,0.7,1.5,0.9,2.3c-0.5,1.3-1,2.8-1.5,4.1c-1.5,0.7-3,1.4-4.5,2.2
	c2.5-11.2,2.9-23.7-2.3-35.8c-1.6,12.6-9.8,23.9-16.4,37.8c1.7-13.8,1.4-28.6-4.6-39.1c-1,8-5.5,21.1-9.9,34.8
	c-1.1-18.3-2.9-33.5-2.4-49.6c-6.6,10.1-11,20.8-13.9,31.4c-3.9-4.7-8.7-8.5-14.4-11c2.9,6.6,3.4,22.9,4.8,38.8
	c-1.7,1.7-3.4,3.4-5,5.1c-0.4-19.1-2.8-34-1.9-49.8C390,28.9,385,44.7,382.9,58.4c-1.5-2.3-3.3-4.6-5.2-6.9
	c-1.1,3.6-2.7,7.3-4.5,11.2c1.3-14.4,1.4-28.2,4-37.7c-7.9,5.7-13.7,13-17.9,20.6c-1.5-4.8-3.5-9.8-5.9-14.7
	c-2.7,11.2-7.6,23.3-12,37.5c-2.3,0.7-4.4,1.6-6.4,2.7c1.2-7.1,1.7-13.3,4.4-19.7c-9.4,4.4-16,9.5-20.7,14.4c1.4-5,2.6-9.6,4.8-14.6
	c-5.5,4.7-9.9,9.3-13.5,13.7c1.2-14.9,3.9-31.3,5.8-48.1c-9.6,8.8-15.2,23.5-18.2,37.6c-2.8-11.2-7.1-22.6-13.9-30.8
	c1.7,9.5,2,23,3,37.4c-3.1-9.8-6.2-18.7-8.1-27.1c-2.3,5-4.1,9.9-5.5,14.7c-4-7.7-9.5-14.9-17-20.6c2.5,9.5,2.6,23.3,3.8,37.7
	c-1.7-3.9-3.3-7.6-4.3-11.2c-1.9,2.4-3.4,4.7-4.9,7c-2-13.8-6.7-29.5-17-43.9c0.9,15.8-1.4,30.7-1.8,49.8c-1.4-1.7-3-3.4-4.7-5.1
	c1.3-15.9,1.8-32.3,4.5-38.8c-5.4,2.6-9.8,6.4-13.7,11c-2.8-10.5-6.9-21.2-13.1-31.4c0.5,16.1-1.2,31.4-2.3,49.6
	c-4.2-13.8-8.5-26.8-9.4-34.8c-5.6,10.5-5.9,25.3-4.3,39.1c-6.3-13.9-14-25.1-15.6-37.8c-4.9,12-4.4,24.6-2.1,35.8
	c-1.4-0.8-2.9-1.5-4.3-2.2c-0.5-1.4-1-2.8-1.4-4.1c0.3-0.8,0.6-1.5,0.9-2.3c-0.5,0.2-1,0.5-1.5,0.7c-2.6-7.6-5-14.4-5.4-19
	c-3.6,5.1-5.5,11.2-6.1,17.4c-2.7-1.8-5-3.9-7-6.6c0.5,6.6,2.1,12.2,4.4,17.1c-1.1,0.9-2,1.7-2.9,2.6c-2.3,0.4-4.5,0.9-6.6,1.7
	c1.7-9,0.4-20.3-5.4-33.6c-2.8,14.1-9.8,26.2-19.2,37.5c0-0.4,0-0.7,0.1-1.1c0.9-5.7,1.6-10.9,3.8-16.2c-1.5,0.7-2.8,1.4-4.2,2.1
	c-0.9-11.2-2.1-21.2,1.2-30.4c-6.9,7-12.1,14.1-16.2,20.8c-1.4-11.6-4.3-23.2-9.7-32.1c0.1,12.3-1.1,23-2.9,32.8
	c-1-4.4-2.6-9-4.7-14c-1.3,6.7-3.6,13-6.7,19c-2.8-9.5-6.8-18.9-12.6-26c1.7,9.5,2,23,3,37.4c-3-9.8-6.1-18.6-8-27
	c-2.3,5-4.1,9.9-5.5,14.7c-4-7.7-9.5-14.9-17-20.6c2.5,9.5,2.6,23.3,3.8,37.7c-1.7-3.9-3.3-7.6-4.3-11.2c-1.3,1.7-2.6,3.4-3.7,5.1
	c-0.8-4.6-2.3-9.6-4.6-15c-1.1,7.2-3.7,13.8-7.3,20c1-12.6,1.5-25.3,3.6-30.5C10,36.4,3.5,55.3,0.7,69.3c-0.2-1.9-0.4-3.6-0.7-5.5
	V82h677.1h677.1V63.9C1353.8,65.6,1353.6,67.4,1353.4,69.3z"/>
</svg>
