<?xml version="1.0" encoding="utf-8"?>
<!-- Generator: Adobe Illustrator 27.9.4, SVG Export Plug-In . SVG Version: 9.03 Build 54784)  -->
<svg version="1.1" id="Calque_1" xmlns="http://www.w3.org/2000/svg" xmlns:xlink="http://www.w3.org/1999/xlink" x="0px" y="0px"
	 viewBox="0 0 1491.6 571.7" style="enable-background:new 0 0 1491.6 571.7;" xml:space="preserve">
<style type="text/css">
	.st0{fill:#97B1BB;}
	.st1{fill:#C2D3E2;}
	.st2{fill:#EBF0F0;}
	.st3{fill:#9FB1BB;}
	.st4{fill:#C9D8E5;}
	.st5{fill:#386266;}
	.st6{fill:#D8E0E1;}
	.st7{fill:#68A400;}
	.st8{fill:#157C4C;}
</style>
<g>
	<g>
		<rect x="1054.6" y="133.5" class="st0" width="38.3" height="26.1"/>
		<rect x="1051.5" y="127.5" class="st1" width="44.5" height="6.1"/>
		<rect x="985.2" y="163.8" class="st1" width="422.1" height="7.9"/>
		<rect x="1373.5" y="164.2" class="st1" width="41.6" height="30.1"/>
		<rect x="1266.6" y="164.2" class="st1" width="41.6" height="30.1"/>
		<rect x="1159.8" y="164.2" class="st1" width="41.6" height="30.1"/>
		<rect x="1052.9" y="164.2" class="st1" width="41.6" height="30.1"/>
		<rect x="986.8" y="158.8" class="st2" width="435.2" height="5.4"/>
		<g>
			<path class="st3" d="M1367.1,171.7h-1.8v1.3l1.8,0.8v3.9c-0.5,0.6-1,1.5-1.3,2.5c-0.3,1.2-0.5,2.6-0.5,4.1c0,2.9,0.8,4.5,1.8,5.1
				v1.9h-1.5v2.8h1.5h3h1.5v-2.8h-1.5v-1.9c1.1-0.7,1.8-2.2,1.8-5.1c0-2.9-0.8-5.4-1.8-6.6v-3.9l1.8-0.8v-1.3h-1.8H1367.1z"/>
			<path class="st3" d="M1357.9,171.7h-1.8v1.3l1.8,0.8v3.9c-0.5,0.6-1,1.5-1.3,2.5c-0.3,1.2-0.5,2.6-0.5,4.1c0,2.9,0.8,4.5,1.8,5.1
				v1.9h-1.5v2.8h1.5h3h1.5v-2.8h-1.5v-1.9c1.1-0.7,1.8-2.2,1.8-5.1c0-2.9-0.8-5.4-1.8-6.6v-3.9l1.8-0.8v-1.3h-1.8H1357.9z"/>
			<path class="st3" d="M1348.7,171.7h-1.8v1.3l1.8,0.8v3.9c-0.5,0.6-1,1.5-1.3,2.5c-0.3,1.2-0.5,2.6-0.5,4.1c0,2.9,0.8,4.5,1.8,5.1
				v1.9h-1.5v2.8h1.5h3h1.5v-2.8h-1.5v-1.9c1.1-0.7,1.8-2.2,1.8-5.1c0-2.9-0.8-5.4-1.8-6.6v-3.9l1.8-0.8v-1.3h-1.8H1348.7z"/>
			<path class="st3" d="M1339.5,171.7h-1.8v1.3l1.8,0.8v3.9c-0.5,0.6-1,1.5-1.3,2.5c-0.3,1.2-0.5,2.6-0.5,4.1c0,2.9,0.8,4.5,1.8,5.1
				v1.9h-1.5v2.8h1.5h3h1.5v-2.8h-1.5v-1.9c1.1-0.7,1.8-2.2,1.8-5.1c0-2.9-0.8-5.4-1.8-6.6v-3.9l1.8-0.8v-1.3h-1.8H1339.5z"/>
			<path class="st3" d="M1330.3,171.7h-1.8v1.3l1.8,0.8v3.9c-0.5,0.6-1,1.5-1.3,2.5c-0.3,1.2-0.5,2.6-0.5,4.1c0,2.9,0.8,4.5,1.8,5.1
				v1.9h-1.5v2.8h1.5h3h1.5v-2.8h-1.5v-1.9c1.1-0.7,1.8-2.2,1.8-5.1c0-2.9-0.8-5.4-1.8-6.6v-3.9l1.8-0.8v-1.3h-1.8H1330.3z"/>
			<path class="st3" d="M1321,171.7h-1.8v1.3l1.8,0.8v3.9c-0.5,0.6-1,1.5-1.3,2.5c-0.3,1.2-0.5,2.6-0.5,4.1c0,2.9,0.8,4.5,1.8,5.1
				v1.9h-1.5v2.8h1.5h3h1.5v-2.8h-1.5v-1.9c1.1-0.7,1.8-2.2,1.8-5.1c0-2.9-0.8-5.4-1.8-6.6v-3.9l1.8-0.8v-1.3h-1.8H1321z"/>
			<path class="st3" d="M1311.8,171.7h-1.8v1.3l1.8,0.8v3.9c-0.5,0.6-1,1.5-1.3,2.5c-0.3,1.2-0.5,2.6-0.5,4.1c0,2.9,0.8,4.5,1.8,5.1
				v1.9h-1.5v2.8h1.5h3h1.5v-2.8h-1.5v-1.9c1.1-0.7,1.8-2.2,1.8-5.1c0-2.9-0.8-5.4-1.8-6.6v-3.9l1.8-0.8v-1.3h-1.8H1311.8z"/>
		</g>
		<g>
			<path class="st3" d="M1260.4,171.5h-1.8v1.3l1.8,0.8v3.9c-0.5,0.6-1,1.5-1.3,2.5c-0.3,1.2-0.5,2.6-0.5,4.1c0,2.9,0.8,4.5,1.8,5.1
				v1.9h-1.5v2.8h1.5h3h1.5v-2.8h-1.5v-1.9c1.1-0.7,1.8-2.2,1.8-5.1c0-2.9-0.8-5.4-1.8-6.6v-3.9l1.8-0.8v-1.3h-1.8H1260.4z"/>
			<path class="st3" d="M1251.2,171.5h-1.8v1.3l1.8,0.8v3.9c-0.5,0.6-1,1.5-1.3,2.5c-0.3,1.2-0.5,2.6-0.5,4.1c0,2.9,0.8,4.5,1.8,5.1
				v1.9h-1.5v2.8h1.5h3h1.5v-2.8h-1.5v-1.9c1.1-0.7,1.8-2.2,1.8-5.1c0-2.9-0.8-5.4-1.8-6.6v-3.9l1.8-0.8v-1.3h-1.8H1251.2z"/>
			<path class="st3" d="M1242,171.5h-1.8v1.3l1.8,0.8v3.9c-0.5,0.6-1,1.5-1.3,2.5c-0.3,1.2-0.5,2.6-0.5,4.1c0,2.9,0.8,4.5,1.8,5.1
				v1.9h-1.5v2.8h1.5h3h1.5v-2.8h-1.5v-1.9c1.1-0.7,1.8-2.2,1.8-5.1c0-2.9-0.8-5.4-1.8-6.6v-3.9l1.8-0.8v-1.3h-1.8H1242z"/>
			<path class="st3" d="M1232.8,171.5h-1.8v1.3l1.8,0.8v3.9c-0.5,0.6-1,1.5-1.3,2.5c-0.3,1.2-0.5,2.6-0.5,4.1c0,2.9,0.8,4.5,1.8,5.1
				v1.9h-1.5v2.8h1.5h3h1.5v-2.8h-1.5v-1.9c1.1-0.7,1.8-2.2,1.8-5.1c0-2.9-0.8-5.4-1.8-6.6v-3.9l1.8-0.8v-1.3h-1.8H1232.8z"/>
			<path class="st3" d="M1223.6,171.5h-1.8v1.3l1.8,0.8v3.9c-0.5,0.6-1,1.5-1.3,2.5c-0.3,1.2-0.5,2.6-0.5,4.1c0,2.9,0.8,4.5,1.8,5.1
				v1.9h-1.5v2.8h1.5h3h1.5v-2.8h-1.5v-1.9c1.1-0.7,1.8-2.2,1.8-5.1c0-2.9-0.8-5.4-1.8-6.6v-3.9l1.8-0.8v-1.3h-1.8H1223.6z"/>
			<path class="st3" d="M1214.4,171.5h-1.8v1.3l1.8,0.8v3.9c-0.5,0.6-1,1.5-1.3,2.5c-0.3,1.2-0.5,2.6-0.5,4.1c0,2.9,0.8,4.5,1.8,5.1
				v1.9h-1.5v2.8h1.5h3h1.5v-2.8h-1.5v-1.9c1.1-0.7,1.8-2.2,1.8-5.1c0-2.9-0.8-5.4-1.8-6.6v-3.9l1.8-0.8v-1.3h-1.8H1214.4z"/>
			<path class="st3" d="M1205.2,171.5h-1.8v1.3l1.8,0.8v3.9c-0.5,0.6-1,1.5-1.3,2.5c-0.3,1.2-0.5,2.6-0.5,4.1c0,2.9,0.8,4.5,1.8,5.1
				v1.9h-1.5v2.8h1.5h3h1.5v-2.8h-1.5v-1.9c1.1-0.7,1.8-2.2,1.8-5.1c0-2.9-0.8-5.4-1.8-6.6v-3.9l1.8-0.8v-1.3h-1.8H1205.2z"/>
		</g>
		<g>
			<path class="st3" d="M1153.7,171.3h-1.8v1.3l1.8,0.8v3.9c-0.5,0.6-1,1.5-1.3,2.5c-0.3,1.2-0.5,2.6-0.5,4.1c0,2.9,0.8,4.5,1.8,5.1
				v1.9h-1.5v2.8h1.5h3h1.5V191h-1.5v-1.9c1.1-0.7,1.8-2.2,1.8-5.1c0-2.9-0.8-5.4-1.8-6.6v-3.9l1.8-0.8v-1.3h-1.8H1153.7z"/>
			<path class="st3" d="M1144.5,171.3h-1.8v1.3l1.8,0.8v3.9c-0.5,0.6-1,1.5-1.3,2.5c-0.3,1.2-0.5,2.6-0.5,4.1c0,2.9,0.8,4.5,1.8,5.1
				v1.9h-1.5v2.8h1.5h3h1.5V191h-1.5v-1.9c1.1-0.7,1.8-2.2,1.8-5.1c0-2.9-0.8-5.4-1.8-6.6v-3.9l1.8-0.8v-1.3h-1.8H1144.5z"/>
			<path class="st3" d="M1135.3,171.3h-1.8v1.3l1.8,0.8v3.9c-0.5,0.6-1,1.5-1.3,2.5c-0.3,1.2-0.5,2.6-0.5,4.1c0,2.9,0.8,4.5,1.8,5.1
				v1.9h-1.5v2.8h1.5h3h1.5V191h-1.5v-1.9c1.1-0.7,1.8-2.2,1.8-5.1c0-2.9-0.8-5.4-1.8-6.6v-3.9l1.8-0.8v-1.3h-1.8H1135.3z"/>
			<path class="st3" d="M1126.1,171.3h-1.8v1.3l1.8,0.8v3.9c-0.5,0.6-1,1.5-1.3,2.5c-0.3,1.2-0.5,2.6-0.5,4.1c0,2.9,0.8,4.5,1.8,5.1
				v1.9h-1.5v2.8h1.5h3h1.5V191h-1.5v-1.9c1.1-0.7,1.8-2.2,1.8-5.1c0-2.9-0.8-5.4-1.8-6.6v-3.9l1.8-0.8v-1.3h-1.8H1126.1z"/>
			<path class="st3" d="M1116.9,171.3h-1.8v1.3l1.8,0.8v3.9c-0.5,0.6-1,1.5-1.3,2.5c-0.3,1.2-0.5,2.6-0.5,4.1c0,2.9,0.8,4.5,1.8,5.1
				v1.9h-1.5v2.8h1.5h3h1.5V191h-1.5v-1.9c1.1-0.7,1.8-2.2,1.8-5.1c0-2.9-0.8-5.4-1.8-6.6v-3.9l1.8-0.8v-1.3h-1.8H1116.9z"/>
			<path class="st3" d="M1107.7,171.3h-1.8v1.3l1.8,0.8v3.9c-0.5,0.6-1,1.5-1.3,2.5c-0.3,1.2-0.5,2.6-0.5,4.1c0,2.9,0.8,4.5,1.8,5.1
				v1.9h-1.5v2.8h1.5h3h1.5V191h-1.5v-1.9c1.1-0.7,1.8-2.2,1.8-5.1c0-2.9-0.8-5.4-1.8-6.6v-3.9l1.8-0.8v-1.3h-1.8H1107.7z"/>
			<path class="st3" d="M1098.5,171.3h-1.8v1.3l1.8,0.8v3.9c-0.5,0.6-1,1.5-1.3,2.5c-0.3,1.2-0.5,2.6-0.5,4.1c0,2.9,0.8,4.5,1.8,5.1
				v1.9h-1.5v2.8h1.5h3h1.5V191h-1.5v-1.9c1.1-0.7,1.8-2.2,1.8-5.1c0-2.9-0.8-5.4-1.8-6.6v-3.9l1.8-0.8v-1.3h-1.8H1098.5z"/>
		</g>
		<g>
			<path class="st3" d="M1047.1,171.1h-1.8v1.3l1.8,0.8v3.9c-0.5,0.6-1,1.5-1.3,2.5c-0.3,1.2-0.5,2.6-0.5,4.1c0,2.9,0.8,4.5,1.8,5.1
				v1.9h-1.5v2.8h1.5h3h1.5v-2.8h-1.5v-1.9c1.1-0.7,1.8-2.2,1.8-5.1c0-2.9-0.8-5.4-1.8-6.6v-3.9l1.8-0.8v-1.3h-1.8H1047.1z"/>
			<path class="st3" d="M1037.9,171.1h-1.8v1.3l1.8,0.8v3.9c-0.5,0.6-1,1.5-1.3,2.5c-0.3,1.2-0.5,2.6-0.5,4.1c0,2.9,0.8,4.5,1.8,5.1
				v1.9h-1.5v2.8h1.5h3h1.5v-2.8h-1.5v-1.9c1.1-0.7,1.8-2.2,1.8-5.1c0-2.9-0.8-5.4-1.8-6.6v-3.9l1.8-0.8v-1.3h-1.8H1037.9z"/>
			<path class="st3" d="M1028.7,171.1h-1.8v1.3l1.8,0.8v3.9c-0.5,0.6-1,1.5-1.3,2.5c-0.3,1.2-0.5,2.6-0.5,4.1c0,2.9,0.8,4.5,1.8,5.1
				v1.9h-1.5v2.8h1.5h3h1.5v-2.8h-1.5v-1.9c1.1-0.7,1.8-2.2,1.8-5.1c0-2.9-0.8-5.4-1.8-6.6v-3.9l1.8-0.8v-1.3h-1.8H1028.7z"/>
			<path class="st3" d="M1019.5,171.1h-1.8v1.3l1.8,0.8v3.9c-0.5,0.6-1,1.5-1.3,2.5c-0.3,1.2-0.5,2.6-0.5,4.1c0,2.9,0.8,4.5,1.8,5.1
				v1.9h-1.5v2.8h1.5h3h1.5v-2.8h-1.5v-1.9c1.1-0.7,1.8-2.2,1.8-5.1c0-2.9-0.8-5.4-1.8-6.6v-3.9l1.8-0.8v-1.3h-1.8H1019.5z"/>
			<path class="st3" d="M1010.3,171.1h-1.8v1.3l1.8,0.8v3.9c-0.5,0.6-1,1.5-1.3,2.5c-0.3,1.2-0.5,2.6-0.5,4.1c0,2.9,0.8,4.5,1.8,5.1
				v1.9h-1.5v2.8h1.5h3h1.5v-2.8h-1.5v-1.9c1.1-0.7,1.8-2.2,1.8-5.1c0-2.9-0.8-5.4-1.8-6.6v-3.9l1.8-0.8v-1.3h-1.8H1010.3z"/>
			<path class="st3" d="M1001.1,171.1h-1.8v1.3l1.8,0.8v3.9c-0.5,0.6-1,1.5-1.3,2.5c-0.3,1.2-0.5,2.6-0.5,4.1c0,2.9,0.8,4.5,1.8,5.1
				v1.9h-1.5v2.8h1.5h3h1.5v-2.8h-1.5v-1.9c1.1-0.7,1.8-2.2,1.8-5.1c0-2.9-0.8-5.4-1.8-6.6v-3.9l1.8-0.8v-1.3h-1.8H1001.1z"/>
			<path class="st3" d="M991.9,171.1H990v1.3l1.8,0.8v3.9c-0.5,0.6-1,1.5-1.3,2.5c-0.3,1.2-0.5,2.6-0.5,4.1c0,2.9,0.8,4.5,1.8,5.1
				v1.9h-1.5v2.8h1.5h3h1.5v-2.8h-1.5v-1.9c1.1-0.7,1.8-2.2,1.8-5.1c0-2.9-0.8-5.4-1.8-6.6v-3.9l1.8-0.8v-1.3h-1.8H991.9z"/>
		</g>
		<rect x="401.2" y="132.9" class="st0" width="38.3" height="26.1"/>
		<rect x="398.1" y="126.8" class="st1" width="44.5" height="6.1"/>
		<rect x="86.7" y="163.1" class="st1" width="422.1" height="7.9"/>
		<rect x="78.9" y="163.6" class="st1" width="41.6" height="30.1"/>
		<rect x="185.8" y="163.6" class="st1" width="41.6" height="30.1"/>
		<rect x="292.7" y="163.6" class="st1" width="41.6" height="30.1"/>
		<rect x="399.5" y="163.6" class="st1" width="41.6" height="30.1"/>
		<rect x="72" y="158.1" class="st2" width="435.2" height="5.4"/>
		<g>
			<path class="st3" d="M124,171.1h-1.8v1.3l1.8,0.8v3.9c-1.1,1.2-1.8,3.7-1.8,6.6c0,2.9,0.8,4.5,1.8,5.1v1.9h-1.5v2.8h1.5h3h1.5
				v-2.8H127v-1.9c1.1-0.7,1.8-2.2,1.8-5.1c0-1.5-0.2-2.9-0.5-4.1c-0.3-1.1-0.8-1.9-1.3-2.5v-3.9l1.8-0.8v-1.3H127H124z"/>
			<path class="st3" d="M133.2,171.1h-1.8v1.3l1.8,0.8v3.9c-1.1,1.2-1.8,3.7-1.8,6.6c0,2.9,0.8,4.5,1.8,5.1v1.9h-1.5v2.8h1.5h3h1.5
				v-2.8h-1.5v-1.9c1.1-0.7,1.8-2.2,1.8-5.1c0-1.5-0.2-2.9-0.5-4.1c-0.3-1.1-0.8-1.9-1.3-2.5v-3.9l1.8-0.8v-1.3h-1.8H133.2z"/>
			<path class="st3" d="M142.4,171.1h-1.8v1.3l1.8,0.8v3.9c-1.1,1.2-1.8,3.7-1.8,6.6c0,2.9,0.8,4.5,1.8,5.1v1.9h-1.5v2.8h1.5h3h1.5
				v-2.8h-1.5v-1.9c1.1-0.7,1.8-2.2,1.8-5.1c0-1.5-0.2-2.9-0.5-4.1c-0.3-1.1-0.8-1.9-1.3-2.5v-3.9l1.8-0.8v-1.3h-1.8H142.4z"/>
			<path class="st3" d="M151.6,171.1h-1.8v1.3l1.8,0.8v3.9c-1.1,1.2-1.8,3.7-1.8,6.6c0,2.9,0.8,4.5,1.8,5.1v1.9h-1.5v2.8h1.5h3h1.5
				v-2.8h-1.5v-1.9c1.1-0.7,1.8-2.2,1.8-5.1c0-1.5-0.2-2.9-0.5-4.1c-0.3-1.1-0.8-1.9-1.3-2.5v-3.9l1.8-0.8v-1.3h-1.8H151.6z"/>
			<path class="st3" d="M160.8,171.1H159v1.3l1.8,0.8v3.9c-1.1,1.2-1.8,3.7-1.8,6.6c0,2.9,0.8,4.5,1.8,5.1v1.9h-1.5v2.8h1.5h3h1.5
				v-2.8h-1.5v-1.9c1.1-0.7,1.8-2.2,1.8-5.1c0-1.5-0.2-2.9-0.5-4.1c-0.3-1.1-0.8-1.9-1.3-2.5v-3.9l1.8-0.8v-1.3h-1.8H160.8z"/>
			<path class="st3" d="M170,171.1h-1.8v1.3l1.8,0.8v3.9c-1.1,1.2-1.8,3.7-1.8,6.6c0,2.9,0.8,4.5,1.8,5.1v1.9h-1.5v2.8h1.5h3h1.5
				v-2.8H173v-1.9c1.1-0.7,1.8-2.2,1.8-5.1c0-1.5-0.2-2.9-0.5-4.1c-0.3-1.1-0.8-1.9-1.3-2.5v-3.9l1.8-0.8v-1.3H173H170z"/>
			<path class="st3" d="M179.2,171.1h-1.8v1.3l1.8,0.8v3.9c-1.1,1.2-1.8,3.7-1.8,6.6c0,2.9,0.8,4.5,1.8,5.1v1.9h-1.5v2.8h1.5h3h1.5
				v-2.8h-1.5v-1.9c1.1-0.7,1.8-2.2,1.8-5.1c0-1.5-0.2-2.9-0.5-4.1c-0.3-1.1-0.8-1.9-1.3-2.5v-3.9l1.8-0.8v-1.3h-1.8H179.2z"/>
		</g>
		<g>
			<path class="st3" d="M230.7,170.9h-1.8v1.3l1.8,0.8v3.9c-1.1,1.2-1.8,3.7-1.8,6.6c0,2.9,0.8,4.5,1.8,5.1v1.9h-1.5v2.8h1.5h3h1.5
				v-2.8h-1.5v-1.9c1.1-0.7,1.8-2.2,1.8-5.1c0-1.5-0.2-2.9-0.5-4.1c-0.3-1.1-0.8-1.9-1.3-2.5v-3.9l1.8-0.8v-1.3h-1.8H230.7z"/>
			<path class="st3" d="M239.9,170.9H238v1.3l1.8,0.8v3.9c-1.1,1.2-1.8,3.7-1.8,6.6c0,2.9,0.8,4.5,1.8,5.1v1.9h-1.5v2.8h1.5h3h1.5
				v-2.8h-1.5v-1.9c1.1-0.7,1.8-2.2,1.8-5.1c0-1.5-0.2-2.9-0.5-4.1c-0.3-1.1-0.8-1.9-1.3-2.5v-3.9l1.8-0.8v-1.3h-1.8H239.9z"/>
			<path class="st3" d="M249.1,170.9h-1.8v1.3l1.8,0.8v3.9c-1.1,1.2-1.8,3.7-1.8,6.6c0,2.9,0.8,4.5,1.8,5.1v1.9h-1.5v2.8h1.5h3h1.5
				v-2.8H252v-1.9c1.1-0.7,1.8-2.2,1.8-5.1c0-1.5-0.2-2.9-0.5-4.1c-0.3-1.1-0.8-1.9-1.3-2.5v-3.9l1.8-0.8v-1.3H252H249.1z"/>
			<path class="st3" d="M258.3,170.9h-1.8v1.3l1.8,0.8v3.9c-1.1,1.2-1.8,3.7-1.8,6.6c0,2.9,0.8,4.5,1.8,5.1v1.9h-1.5v2.8h1.5h3h1.5
				v-2.8h-1.5v-1.9c1.1-0.7,1.8-2.2,1.8-5.1c0-1.5-0.2-2.9-0.5-4.1c-0.3-1.1-0.8-1.9-1.3-2.5v-3.9l1.8-0.8v-1.3h-1.8H258.3z"/>
			<path class="st3" d="M267.5,170.9h-1.8v1.3l1.8,0.8v3.9c-1.1,1.2-1.8,3.7-1.8,6.6c0,2.9,0.8,4.5,1.8,5.1v1.9H266v2.8h1.5h3h1.5
				v-2.8h-1.5v-1.9c1.1-0.7,1.8-2.2,1.8-5.1c0-1.5-0.2-2.9-0.5-4.1c-0.3-1.1-0.8-1.9-1.3-2.5v-3.9l1.8-0.8v-1.3h-1.8H267.5z"/>
			<path class="st3" d="M276.7,170.9h-1.8v1.3l1.8,0.8v3.9c-1.1,1.2-1.8,3.7-1.8,6.6c0,2.9,0.8,4.5,1.8,5.1v1.9h-1.5v2.8h1.5h3h1.5
				v-2.8h-1.5v-1.9c1.1-0.7,1.8-2.2,1.8-5.1c0-1.5-0.2-2.9-0.5-4.1c-0.3-1.1-0.8-1.9-1.3-2.5v-3.9l1.8-0.8v-1.3h-1.8H276.7z"/>
			<path class="st3" d="M285.9,170.9H284v1.3l1.8,0.8v3.9c-1.1,1.2-1.8,3.7-1.8,6.6c0,2.9,0.8,4.5,1.8,5.1v1.9h-1.5v2.8h1.5h3h1.5
				v-2.8h-1.5v-1.9c1.1-0.7,1.8-2.2,1.8-5.1c0-1.5-0.2-2.9-0.5-4.1c-0.3-1.1-0.8-1.9-1.3-2.5v-3.9l1.8-0.8v-1.3h-1.8H285.9z"/>
		</g>
		<g>
			<path class="st3" d="M337.3,170.7h-1.8v1.3l1.8,0.8v3.9c-1.1,1.2-1.8,3.7-1.8,6.6s0.8,4.5,1.8,5.1v1.9h-1.5v2.8h1.5h3h1.5v-2.8
				h-1.5v-1.9c1.1-0.7,1.8-2.2,1.8-5.1c0-1.5-0.2-2.9-0.5-4.1c-0.3-1.1-0.8-1.9-1.3-2.5v-3.9l1.8-0.8v-1.3h-1.8H337.3z"/>
			<path class="st3" d="M346.5,170.7h-1.8v1.3l1.8,0.8v3.9c-1.1,1.2-1.8,3.7-1.8,6.6s0.8,4.5,1.8,5.1v1.9H345v2.8h1.5h3h1.5v-2.8
				h-1.5v-1.9c1.1-0.7,1.8-2.2,1.8-5.1c0-1.5-0.2-2.9-0.5-4.1c-0.3-1.1-0.8-1.9-1.3-2.5v-3.9l1.8-0.8v-1.3h-1.8H346.5z"/>
			<path class="st3" d="M355.7,170.7h-1.8v1.3l1.8,0.8v3.9c-1.1,1.2-1.8,3.7-1.8,6.6s0.8,4.5,1.8,5.1v1.9h-1.5v2.8h1.5h3h1.5v-2.8
				h-1.5v-1.9c1.1-0.7,1.8-2.2,1.8-5.1c0-1.5-0.2-2.9-0.5-4.1c-0.3-1.1-0.8-1.9-1.3-2.5v-3.9l1.8-0.8v-1.3h-1.8H355.7z"/>
			<path class="st3" d="M364.9,170.7h-1.8v1.3l1.8,0.8v3.9c-1.1,1.2-1.8,3.7-1.8,6.6s0.8,4.5,1.8,5.1v1.9h-1.5v2.8h1.5h3h1.5v-2.8
				h-1.5v-1.9c1.1-0.7,1.8-2.2,1.8-5.1c0-1.5-0.2-2.9-0.5-4.1c-0.3-1.1-0.8-1.9-1.3-2.5v-3.9l1.8-0.8v-1.3h-1.8H364.9z"/>
			<path class="st3" d="M374.1,170.7h-1.8v1.3l1.8,0.8v3.9c-1.1,1.2-1.8,3.7-1.8,6.6s0.8,4.5,1.8,5.1v1.9h-1.5v2.8h1.5h3h1.5v-2.8
				h-1.5v-1.9c1.1-0.7,1.8-2.2,1.8-5.1c0-1.5-0.2-2.9-0.5-4.1c-0.3-1.1-0.8-1.9-1.3-2.5v-3.9l1.8-0.8v-1.3h-1.8H374.1z"/>
			<path class="st3" d="M383.3,170.7h-1.8v1.3l1.8,0.8v3.9c-1.1,1.2-1.8,3.7-1.8,6.6s0.8,4.5,1.8,5.1v1.9h-1.5v2.8h1.5h3h1.5v-2.8
				h-1.5v-1.9c1.1-0.7,1.8-2.2,1.8-5.1c0-1.5-0.2-2.9-0.5-4.1c-0.3-1.1-0.8-1.9-1.3-2.5v-3.9l1.8-0.8v-1.3h-1.8H383.3z"/>
			<path class="st3" d="M392.5,170.7h-1.8v1.3l1.8,0.8v3.9c-1.1,1.2-1.8,3.7-1.8,6.6s0.8,4.5,1.8,5.1v1.9H391v2.8h1.5h3h1.5v-2.8
				h-1.5v-1.9c1.1-0.7,1.8-2.2,1.8-5.1c0-1.5-0.2-2.9-0.5-4.1c-0.3-1.1-0.8-1.9-1.3-2.5v-3.9l1.8-0.8v-1.3h-1.8H392.5z"/>
		</g>
		<g>
			<path class="st3" d="M444,170.4h-1.8v1.3l1.8,0.8v3.9c-1.1,1.2-1.8,3.7-1.8,6.6c0,2.9,0.8,4.5,1.8,5.1v1.9h-1.5v2.8h1.5h3h1.5
				v-2.8H447v-1.9c1.1-0.7,1.8-2.2,1.8-5.1c0-1.5-0.2-2.9-0.5-4.1c-0.3-1.1-0.8-1.9-1.3-2.5v-3.9l1.8-0.8v-1.3H447H444z"/>
			<path class="st3" d="M453.2,170.4h-1.8v1.3l1.8,0.8v3.9c-1.1,1.2-1.8,3.7-1.8,6.6c0,2.9,0.8,4.5,1.8,5.1v1.9h-1.5v2.8h1.5h3h1.5
				v-2.8h-1.5v-1.9c1.1-0.7,1.8-2.2,1.8-5.1c0-1.5-0.2-2.9-0.5-4.1c-0.3-1.1-0.8-1.9-1.3-2.5v-3.9l1.8-0.8v-1.3h-1.8H453.2z"/>
			<path class="st3" d="M462.4,170.4h-1.8v1.3l1.8,0.8v3.9c-1.1,1.2-1.8,3.7-1.8,6.6c0,2.9,0.8,4.5,1.8,5.1v1.9h-1.5v2.8h1.5h3h1.5
				v-2.8h-1.5v-1.9c1.1-0.7,1.8-2.2,1.8-5.1c0-1.5-0.2-2.9-0.5-4.1c-0.3-1.1-0.8-1.9-1.3-2.5v-3.9l1.8-0.8v-1.3h-1.8H462.4z"/>
			<path class="st3" d="M471.6,170.4h-1.8v1.3l1.8,0.8v3.9c-1.1,1.2-1.8,3.7-1.8,6.6c0,2.9,0.8,4.5,1.8,5.1v1.9h-1.5v2.8h1.5h3h1.5
				v-2.8h-1.5v-1.9c1.1-0.7,1.8-2.2,1.8-5.1c0-1.5-0.2-2.9-0.5-4.1c-0.3-1.1-0.8-1.9-1.3-2.5v-3.9l1.8-0.8v-1.3h-1.8H471.6z"/>
			<path class="st3" d="M480.8,170.4h-1.8v1.3l1.8,0.8v3.9c-1.1,1.2-1.8,3.7-1.8,6.6c0,2.9,0.8,4.5,1.8,5.1v1.9h-1.5v2.8h1.5h3h1.5
				v-2.8h-1.5v-1.9c1.1-0.7,1.8-2.2,1.8-5.1c0-1.5-0.2-2.9-0.5-4.1c-0.3-1.1-0.8-1.9-1.3-2.5v-3.9l1.8-0.8v-1.3h-1.8H480.8z"/>
			<path class="st3" d="M490,170.4h-1.8v1.3l1.8,0.8v3.9c-1.1,1.2-1.8,3.7-1.8,6.6c0,2.9,0.8,4.5,1.8,5.1v1.9h-1.5v2.8h1.5h3h1.5
				v-2.8H493v-1.9c1.1-0.7,1.8-2.2,1.8-5.1c0-1.5-0.2-2.9-0.5-4.1c-0.3-1.1-0.8-1.9-1.3-2.5v-3.9l1.8-0.8v-1.3H493H490z"/>
			<path class="st3" d="M499.2,170.4h-1.8v1.3l1.8,0.8v3.9c-1.1,1.2-1.8,3.7-1.8,6.6c0,2.9,0.8,4.5,1.8,5.1v1.9h-1.5v2.8h1.5h3h1.5
				v-2.8h-1.5v-1.9c1.1-0.7,1.8-2.2,1.8-5.1c0-1.5-0.2-2.9-0.5-4.1c-0.3-1.1-0.8-1.9-1.3-2.5v-3.9l1.8-0.8v-1.3h-1.8H499.2z"/>
		</g>
		<rect x="78.9" y="191.9" class="st4" width="1336.2" height="369.8"/>
		<rect x="65.5" y="213" class="st2" width="1360.6" height="8.1"/>
		<polygon class="st3" points="78.9,225.8 1415.1,225.8 1426.1,221.2 65.5,221.2 		"/>
		<polygon class="st0" points="530.4,191.9 530.4,241.9 751.1,241.9 971.7,241.9 971.7,191.9 751.1,191.8 		"/>
		<rect x="73.4" y="242.4" class="st2" width="1347.8" height="13.1"/>
		<polygon class="st3" points="78.9,261.9 1415,261.9 1421.2,255.6 73.4,255.6 		"/>
		<rect x="72.2" y="541.7" class="st0" width="1347.8" height="23.2"/>
		<polygon class="st1" points="484.5,117.7 1017.6,117.7 751.1,0 		"/>
		<rect x="484.5" y="117.7" class="st2" width="533.1" height="15.2"/>
		<polygon class="st2" points="494,117.7 1008.2,117.7 751.1,4.2 		"/>
		<polygon class="st0" points="521.4,117.7 980.8,117.7 751.1,16.3 		"/>
		<g>
			<rect x="129.6" y="268.7" class="st2" width="50.8" height="12.3"/>
			<g>
				<rect x="129.9" y="338.4" class="st2" width="6.7" height="22.7"/>
				<rect x="173.3" y="338.4" class="st2" width="6.7" height="22.7"/>
			</g>
			<rect x="133.6" y="271" class="st2" width="42.8" height="78.9"/>
			<rect x="138.2" y="274.4" class="st3" width="33.6" height="72.2"/>
			<rect x="141.1" y="278.1" class="st5" width="27.7" height="66.4"/>
			<rect x="149.3" y="278.1" class="st2" width="1.4" height="66.4"/>
			<rect x="159.8" y="278.1" class="st2" width="1.4" height="66.4"/>
			<rect x="141.1" y="294" class="st2" width="27.7" height="1.5"/>
			<rect x="141.1" y="311.1" class="st2" width="27.7" height="1.5"/>
			<rect x="141.1" y="328.2" class="st2" width="27.7" height="1.5"/>
			<rect x="127.3" y="349.1" class="st2" width="55.3" height="6.3"/>
		</g>
		<g>
			<rect x="114.8" y="509.5" class="st2" width="77.5" height="8.7"/>
			<rect x="123.2" y="518.2" class="st2" width="60.8" height="6.8"/>
			<rect x="115.6" y="392.2" class="st2" width="77.2" height="9"/>
			<rect x="123.5" y="401.2" class="st2" width="60.1" height="109.5"/>
			<rect x="130.1" y="405.8" class="st3" width="47.2" height="100.2"/>
			<rect x="134.1" y="411" class="st5" width="38.9" height="92.1"/>
			<rect x="145.6" y="411" class="st2" width="2" height="92.1"/>
			<rect x="160.4" y="411" class="st2" width="2" height="92.1"/>
			<rect x="134.1" y="433" class="st2" width="38.9" height="2"/>
			<rect x="134.1" y="456.8" class="st2" width="38.9" height="2"/>
			<rect x="134.1" y="480.6" class="st2" width="38.9" height="2"/>
			<path class="st2" d="M112.7,383.1l3.1,5.4h76.9l2.8-5.4c0,0-14.9-12.9-41.4-12.9C128.2,370.2,112.7,383.1,112.7,383.1z"/>
			<rect x="115.6" y="388.5" class="st2" width="77.2" height="3.3"/>
			<path class="st0" d="M123.1,388.5h62c0,0-11.1-9.7-31-9.7C134.7,378.9,123.1,388.5,123.1,388.5z"/>
		</g>
		<g>
			<rect x="219.7" y="509.5" class="st2" width="77.5" height="8.7"/>
			<rect x="228.1" y="518.2" class="st2" width="60.8" height="6.8"/>
			<rect x="220.5" y="392.2" class="st2" width="77.2" height="9"/>
			<rect x="228.5" y="401.2" class="st2" width="60.1" height="109.5"/>
			<rect x="235.1" y="405.8" class="st3" width="47.2" height="100.2"/>
			<rect x="239.1" y="411" class="st5" width="38.9" height="92.1"/>
			<rect x="250.6" y="411" class="st2" width="2" height="92.1"/>
			<rect x="265.3" y="411" class="st2" width="2" height="92.1"/>
			<rect x="239.1" y="433" class="st2" width="38.9" height="2"/>
			<rect x="239.1" y="456.8" class="st2" width="38.9" height="2"/>
			<rect x="239.1" y="480.6" class="st2" width="38.9" height="2"/>
			<polygon class="st2" points="217.7,385.6 220.7,388.5 297.7,388.5 300.5,385.6 259.1,370.2 			"/>
			<rect x="220.5" y="388.5" class="st2" width="77.2" height="3.3"/>
			<polygon class="st0" points="228.1,388.5 290.1,388.5 259.1,378.9 			"/>
		</g>
		<g>
			<rect x="233.6" y="268.7" class="st2" width="50.8" height="12.3"/>
			<g>
				<rect x="233.9" y="338.4" class="st2" width="6.7" height="22.7"/>
				<rect x="277.3" y="338.4" class="st2" width="6.7" height="22.7"/>
			</g>
			<rect x="237.6" y="271" class="st2" width="42.8" height="78.9"/>
			<rect x="242.3" y="274.4" class="st3" width="33.6" height="72.2"/>
			<rect x="245.1" y="278.1" class="st5" width="27.7" height="66.4"/>
			<rect x="253.3" y="278.1" class="st2" width="1.4" height="66.4"/>
			<rect x="263.8" y="278.1" class="st2" width="1.4" height="66.4"/>
			<rect x="245.1" y="294" class="st2" width="27.7" height="1.5"/>
			<rect x="245.1" y="311.1" class="st2" width="27.7" height="1.5"/>
			<rect x="245.1" y="328.2" class="st2" width="27.7" height="1.5"/>
			<rect x="231.3" y="349.1" class="st2" width="55.3" height="6.3"/>
		</g>
		<g>
			<rect x="337.6" y="268.7" class="st2" width="50.8" height="12.3"/>
			<g>
				<rect x="337.9" y="338.4" class="st2" width="6.7" height="22.7"/>
				<rect x="381.3" y="338.4" class="st2" width="6.7" height="22.7"/>
			</g>
			<rect x="341.6" y="271" class="st2" width="42.8" height="78.9"/>
			<rect x="346.3" y="274.4" class="st3" width="33.6" height="72.2"/>
			<rect x="349.1" y="278.1" class="st5" width="27.7" height="66.4"/>
			<rect x="357.3" y="278.1" class="st2" width="1.4" height="66.4"/>
			<rect x="367.8" y="278.1" class="st2" width="1.4" height="66.4"/>
			<rect x="349.1" y="294" class="st2" width="27.7" height="1.5"/>
			<rect x="349.1" y="311.1" class="st2" width="27.7" height="1.5"/>
			<rect x="349.1" y="328.2" class="st2" width="27.7" height="1.5"/>
			<rect x="335.3" y="349.1" class="st2" width="55.3" height="6.3"/>
		</g>
		<g>
			<rect x="441.6" y="268.7" class="st2" width="50.8" height="12.3"/>
			<g>
				<rect x="441.9" y="338.4" class="st2" width="6.7" height="22.7"/>
				<rect x="485.3" y="338.4" class="st2" width="6.7" height="22.7"/>
			</g>
			<rect x="445.6" y="271" class="st2" width="42.8" height="78.9"/>
			<rect x="450.3" y="274.4" class="st3" width="33.6" height="72.2"/>
			<rect x="453.1" y="278.1" class="st5" width="27.7" height="66.4"/>
			<rect x="461.3" y="278.1" class="st2" width="1.4" height="66.4"/>
			<rect x="471.8" y="278.1" class="st2" width="1.4" height="66.4"/>
			<rect x="453.1" y="294" class="st2" width="27.7" height="1.5"/>
			<rect x="453.1" y="311.1" class="st2" width="27.7" height="1.5"/>
			<rect x="453.1" y="328.2" class="st2" width="27.7" height="1.5"/>
			<rect x="439.3" y="349.1" class="st2" width="55.3" height="6.3"/>
		</g>
		<g>
			<rect x="597.9" y="268.7" class="st2" width="50.8" height="12.3"/>
			<g>
				<rect x="598.3" y="338.4" class="st2" width="6.7" height="22.7"/>
				<rect x="641.7" y="338.4" class="st2" width="6.7" height="22.7"/>
			</g>
			<rect x="601.9" y="271" class="st2" width="42.8" height="78.9"/>
			<rect x="606.6" y="274.4" class="st3" width="33.6" height="72.2"/>
			<rect x="609.5" y="278.1" class="st5" width="27.7" height="66.4"/>
			<rect x="617.7" y="278.1" class="st2" width="1.4" height="66.4"/>
			<rect x="628.2" y="278.1" class="st2" width="1.4" height="66.4"/>
			<rect x="609.5" y="294" class="st2" width="27.7" height="1.5"/>
			<rect x="609.5" y="311.1" class="st2" width="27.7" height="1.5"/>
			<rect x="609.5" y="328.2" class="st2" width="27.7" height="1.5"/>
			<rect x="595.7" y="349.1" class="st2" width="55.3" height="6.3"/>
		</g>
		<g>
			<rect x="730.4" y="268.7" class="st2" width="50.8" height="12.3"/>
			<g>
				<rect x="730.7" y="338.4" class="st2" width="6.7" height="22.7"/>
				<rect x="774.1" y="338.4" class="st2" width="6.7" height="22.7"/>
			</g>
			<rect x="734.3" y="271" class="st2" width="42.8" height="78.9"/>
			<rect x="739" y="274.4" class="st3" width="33.6" height="72.2"/>
			<rect x="741.9" y="278.1" class="st5" width="27.7" height="66.4"/>
			<rect x="750.1" y="278.1" class="st2" width="1.4" height="66.4"/>
			<rect x="760.6" y="278.1" class="st2" width="1.4" height="66.4"/>
			<rect x="741.9" y="294" class="st2" width="27.7" height="1.5"/>
			<rect x="741.9" y="311.1" class="st2" width="27.7" height="1.5"/>
			<rect x="741.9" y="328.2" class="st2" width="27.7" height="1.5"/>
			<rect x="728.1" y="349.1" class="st2" width="55.3" height="6.3"/>
		</g>
		<g>
			<rect x="862.8" y="268.7" class="st2" width="50.8" height="12.3"/>
			<g>
				<rect x="863.1" y="338.4" class="st2" width="6.7" height="22.7"/>
				<rect x="906.5" y="338.4" class="st2" width="6.7" height="22.7"/>
			</g>
			<rect x="866.7" y="271" class="st2" width="42.8" height="78.9"/>
			<rect x="871.4" y="274.4" class="st3" width="33.6" height="72.2"/>
			<rect x="874.3" y="278.1" class="st5" width="27.7" height="66.4"/>
			<rect x="882.5" y="278.1" class="st2" width="1.4" height="66.4"/>
			<rect x="893" y="278.1" class="st2" width="1.4" height="66.4"/>
			<rect x="874.3" y="294" class="st2" width="27.7" height="1.5"/>
			<rect x="874.3" y="311.1" class="st2" width="27.7" height="1.5"/>
			<rect x="874.3" y="328.2" class="st2" width="27.7" height="1.5"/>
			<rect x="860.5" y="349.1" class="st2" width="55.3" height="6.3"/>
		</g>
		<g>
			<rect x="1012.5" y="268.7" class="st2" width="50.8" height="12.3"/>
			<g>
				<rect x="1012.8" y="338.4" class="st2" width="6.7" height="22.7"/>
				<rect x="1056.3" y="338.4" class="st2" width="6.7" height="22.7"/>
			</g>
			<rect x="1016.5" y="271" class="st2" width="42.8" height="78.9"/>
			<rect x="1021.2" y="274.4" class="st3" width="33.6" height="72.2"/>
			<rect x="1024.1" y="278.1" class="st5" width="27.7" height="66.4"/>
			<rect x="1032.3" y="278.1" class="st2" width="1.4" height="66.4"/>
			<rect x="1042.8" y="278.1" class="st2" width="1.4" height="66.4"/>
			<rect x="1024.1" y="294" class="st2" width="27.7" height="1.5"/>
			<rect x="1024.1" y="311.1" class="st2" width="27.7" height="1.5"/>
			<rect x="1024.1" y="328.2" class="st2" width="27.7" height="1.5"/>
			<rect x="1010.3" y="349.1" class="st2" width="55.3" height="6.3"/>
		</g>
		<g>
			<rect x="1116.5" y="268.7" class="st2" width="50.8" height="12.3"/>
			<g>
				<rect x="1116.9" y="338.4" class="st2" width="6.7" height="22.7"/>
				<rect x="1160.3" y="338.4" class="st2" width="6.7" height="22.7"/>
			</g>
			<rect x="1120.5" y="271" class="st2" width="42.8" height="78.9"/>
			<rect x="1125.2" y="274.4" class="st3" width="33.6" height="72.2"/>
			<rect x="1128.1" y="278.1" class="st5" width="27.7" height="66.4"/>
			<rect x="1136.3" y="278.1" class="st2" width="1.4" height="66.4"/>
			<rect x="1146.8" y="278.1" class="st2" width="1.4" height="66.4"/>
			<rect x="1128.1" y="294" class="st2" width="27.7" height="1.5"/>
			<rect x="1128.1" y="311.1" class="st2" width="27.7" height="1.5"/>
			<rect x="1128.1" y="328.2" class="st2" width="27.7" height="1.5"/>
			<rect x="1114.3" y="349.1" class="st2" width="55.3" height="6.3"/>
		</g>
		<g>
			<rect x="1220.6" y="268.7" class="st2" width="50.8" height="12.3"/>
			<g>
				<rect x="1220.9" y="338.4" class="st2" width="6.7" height="22.7"/>
				<rect x="1264.3" y="338.4" class="st2" width="6.7" height="22.7"/>
			</g>
			<rect x="1224.5" y="271" class="st2" width="42.8" height="78.9"/>
			<rect x="1229.2" y="274.4" class="st3" width="33.6" height="72.2"/>
			<rect x="1232.1" y="278.1" class="st5" width="27.7" height="66.4"/>
			<rect x="1240.3" y="278.1" class="st2" width="1.4" height="66.4"/>
			<rect x="1250.8" y="278.1" class="st2" width="1.4" height="66.4"/>
			<rect x="1232.1" y="294" class="st2" width="27.7" height="1.5"/>
			<rect x="1232.1" y="311.1" class="st2" width="27.7" height="1.5"/>
			<rect x="1232.1" y="328.2" class="st2" width="27.7" height="1.5"/>
			<rect x="1218.3" y="349.1" class="st2" width="55.3" height="6.3"/>
		</g>
		<g>
			<rect x="1324.6" y="268.7" class="st2" width="50.8" height="12.3"/>
			<g>
				<rect x="1324.9" y="338.4" class="st2" width="6.7" height="22.7"/>
				<rect x="1368.3" y="338.4" class="st2" width="6.7" height="22.7"/>
			</g>
			<rect x="1328.5" y="271" class="st2" width="42.8" height="78.9"/>
			<rect x="1333.2" y="274.4" class="st3" width="33.6" height="72.2"/>
			<rect x="1336.1" y="278.1" class="st5" width="27.7" height="66.4"/>
			<rect x="1344.3" y="278.1" class="st2" width="1.4" height="66.4"/>
			<rect x="1354.8" y="278.1" class="st2" width="1.4" height="66.4"/>
			<rect x="1336.1" y="294" class="st2" width="27.7" height="1.5"/>
			<rect x="1336.1" y="311.1" class="st2" width="27.7" height="1.5"/>
			<rect x="1336.1" y="328.2" class="st2" width="27.7" height="1.5"/>
			<rect x="1322.3" y="349.1" class="st2" width="55.3" height="6.3"/>
		</g>
		<g>
			<rect x="324" y="509.5" class="st2" width="77.5" height="8.7"/>
			<rect x="332.4" y="518.2" class="st2" width="60.8" height="6.8"/>
			<rect x="324.8" y="392.2" class="st2" width="77.2" height="9"/>
			<rect x="332.8" y="401.2" class="st2" width="60.1" height="109.5"/>
			<rect x="339.4" y="405.8" class="st3" width="47.2" height="100.2"/>
			<rect x="343.4" y="411" class="st5" width="38.9" height="92.1"/>
			<rect x="354.9" y="411" class="st2" width="2" height="92.1"/>
			<rect x="369.6" y="411" class="st2" width="2" height="92.1"/>
			<rect x="343.4" y="433" class="st2" width="38.9" height="2"/>
			<rect x="343.4" y="456.8" class="st2" width="38.9" height="2"/>
			<rect x="343.4" y="480.6" class="st2" width="38.9" height="2"/>
			<path class="st2" d="M322,383.1l3.1,5.4H402l2.8-5.4c0,0-14.9-12.9-41.4-12.9C337.5,370.2,322,383.1,322,383.1z"/>
			<rect x="324.8" y="388.5" class="st2" width="77.2" height="3.3"/>
			<path class="st0" d="M332.4,388.5h62c0,0-11.1-9.7-31-9.7C344,378.9,332.4,388.5,332.4,388.5z"/>
		</g>
		<g>
			<rect x="585.9" y="509.5" class="st2" width="77.5" height="8.7"/>
			<rect x="594.3" y="518.2" class="st2" width="60.8" height="6.8"/>
			<rect x="586.6" y="392.2" class="st2" width="77.2" height="9"/>
			<rect x="594.6" y="401.2" class="st2" width="60.1" height="109.5"/>
			<rect x="601.2" y="405.8" class="st3" width="47.2" height="100.2"/>
			<rect x="605.2" y="411" class="st5" width="38.9" height="92.1"/>
			<rect x="616.7" y="411" class="st2" width="2" height="92.1"/>
			<rect x="631.4" y="411" class="st2" width="2" height="92.1"/>
			<rect x="605.2" y="433" class="st2" width="38.9" height="2"/>
			<rect x="605.2" y="456.8" class="st2" width="38.9" height="2"/>
			<rect x="605.2" y="480.6" class="st2" width="38.9" height="2"/>
			<path class="st2" d="M583.8,383.1l3.1,5.4h76.9l2.8-5.4c0,0-14.9-12.9-41.4-12.9C599.3,370.2,583.8,383.1,583.8,383.1z"/>
			<rect x="586.6" y="388.5" class="st2" width="77.2" height="3.3"/>
			<path class="st0" d="M594.2,388.5h62c0,0-11.1-9.7-31-9.7C605.8,378.9,594.2,388.5,594.2,388.5z"/>
		</g>
		<g>
			<rect x="843.9" y="509.5" class="st2" width="77.5" height="8.7"/>
			<rect x="852.2" y="518.2" class="st2" width="60.8" height="6.8"/>
			<rect x="844.6" y="392.2" class="st2" width="77.2" height="9"/>
			<rect x="852.6" y="401.2" class="st2" width="60.1" height="109.5"/>
			<rect x="859.2" y="405.8" class="st3" width="47.2" height="100.2"/>
			<rect x="863.2" y="411" class="st5" width="38.9" height="92.1"/>
			<rect x="874.7" y="411" class="st2" width="2" height="92.1"/>
			<rect x="889.4" y="411" class="st2" width="2" height="92.1"/>
			<rect x="863.2" y="433" class="st2" width="38.9" height="2"/>
			<rect x="863.2" y="456.8" class="st2" width="38.9" height="2"/>
			<rect x="863.2" y="480.6" class="st2" width="38.9" height="2"/>
			<path class="st2" d="M841.8,383.1l3.1,5.4h76.9l2.8-5.4c0,0-14.9-12.9-41.4-12.9C857.3,370.2,841.8,383.1,841.8,383.1z"/>
			<rect x="844.6" y="388.5" class="st2" width="77.2" height="3.3"/>
			<path class="st0" d="M852.2,388.5h62c0,0-11.1-9.7-31-9.7C863.8,378.9,852.2,388.5,852.2,388.5z"/>
		</g>
		<g>
			<rect x="429" y="509.5" class="st2" width="77.5" height="8.7"/>
			<rect x="437.4" y="518.2" class="st2" width="60.8" height="6.8"/>
			<rect x="429.7" y="392.2" class="st2" width="77.2" height="9"/>
			<rect x="437.7" y="401.2" class="st2" width="60.1" height="109.5"/>
			<rect x="444.3" y="405.8" class="st3" width="47.2" height="100.2"/>
			<rect x="448.3" y="411" class="st5" width="38.9" height="92.1"/>
			<rect x="459.8" y="411" class="st2" width="2" height="92.1"/>
			<rect x="474.5" y="411" class="st2" width="2" height="92.1"/>
			<rect x="448.3" y="433" class="st2" width="38.9" height="2"/>
			<rect x="448.3" y="456.8" class="st2" width="38.9" height="2"/>
			<rect x="448.3" y="480.6" class="st2" width="38.9" height="2"/>
			<polygon class="st2" points="426.9,385.6 430,388.5 506.9,388.5 509.7,385.6 468.3,370.2 			"/>
			<rect x="429.7" y="388.5" class="st2" width="77.2" height="3.3"/>
			<polygon class="st0" points="437.3,388.5 499.3,388.5 468.3,378.9 			"/>
		</g>
		<g>
			<rect x="1310.3" y="509.5" class="st2" width="77.5" height="8.7"/>
			<rect x="1318.6" y="518.2" class="st2" width="60.8" height="6.8"/>
			<rect x="1309.9" y="392.2" class="st2" width="77.2" height="9"/>
			<rect x="1319" y="401.2" class="st2" width="60.1" height="109.5"/>
			<rect x="1325.3" y="405.8" class="st3" width="47.2" height="100.2"/>
			<rect x="1329.6" y="411" class="st5" width="38.9" height="92.1"/>
			<rect x="1355" y="411" class="st2" width="2" height="92.1"/>
			<rect x="1340.3" y="411" class="st2" width="2" height="92.1"/>
			<rect x="1329.6" y="433" class="st2" width="38.9" height="2"/>
			<rect x="1329.6" y="456.8" class="st2" width="38.9" height="2"/>
			<rect x="1329.6" y="480.6" class="st2" width="38.9" height="2"/>
			<path class="st2" d="M1307.1,383.1l2.8,5.4h76.9l3.1-5.4c0,0-15.5-12.9-41.4-12.9C1321.9,370.2,1307.1,383.1,1307.1,383.1z"/>
			<rect x="1309.9" y="388.5" class="st2" width="77.2" height="3.3"/>
			<path class="st0" d="M1317.5,388.5h62c0,0-11.6-9.7-31-9.7C1328.6,378.9,1317.5,388.5,1317.5,388.5z"/>
		</g>
		<g>
			<rect x="1205.3" y="509.5" class="st2" width="77.5" height="8.7"/>
			<rect x="1213.7" y="518.2" class="st2" width="60.8" height="6.8"/>
			<rect x="1205" y="392.2" class="st2" width="77.2" height="9"/>
			<rect x="1214.1" y="401.2" class="st2" width="60.1" height="109.5"/>
			<rect x="1220.4" y="405.8" class="st3" width="47.2" height="100.2"/>
			<rect x="1224.6" y="411" class="st5" width="38.9" height="92.1"/>
			<rect x="1250.1" y="411" class="st2" width="2" height="92.1"/>
			<rect x="1235.3" y="411" class="st2" width="2" height="92.1"/>
			<rect x="1224.6" y="433" class="st2" width="38.9" height="2"/>
			<rect x="1224.6" y="456.8" class="st2" width="38.9" height="2"/>
			<rect x="1224.6" y="480.6" class="st2" width="38.9" height="2"/>
			<polygon class="st2" points="1202.1,385.6 1205,388.5 1281.9,388.5 1285,385.6 1243.5,370.2 			"/>
			<rect x="1205" y="388.5" class="st2" width="77.2" height="3.3"/>
			<polygon class="st0" points="1212.5,388.5 1274.6,388.5 1243.5,378.9 			"/>
		</g>
		<g>
			<rect x="1101" y="509.5" class="st2" width="77.5" height="8.7"/>
			<rect x="1109.4" y="518.2" class="st2" width="60.8" height="6.8"/>
			<rect x="1100.7" y="392.2" class="st2" width="77.2" height="9"/>
			<rect x="1109.8" y="401.2" class="st2" width="60.1" height="109.5"/>
			<rect x="1116.1" y="405.8" class="st3" width="47.2" height="100.2"/>
			<rect x="1120.3" y="411" class="st5" width="38.9" height="92.1"/>
			<rect x="1145.8" y="411" class="st2" width="2" height="92.1"/>
			<rect x="1131" y="411" class="st2" width="2" height="92.1"/>
			<rect x="1120.3" y="433" class="st2" width="38.9" height="2"/>
			<rect x="1120.3" y="456.8" class="st2" width="38.9" height="2"/>
			<rect x="1120.3" y="480.6" class="st2" width="38.9" height="2"/>
			<path class="st2" d="M1097.8,383.1l2.8,5.4h76.9l3.1-5.4c0,0-15.5-12.9-41.4-12.9C1112.7,370.2,1097.8,383.1,1097.8,383.1z"/>
			<rect x="1100.7" y="388.5" class="st2" width="77.2" height="3.3"/>
			<path class="st0" d="M1108.2,388.5h62c0,0-11.6-9.7-31-9.7C1119.4,378.9,1108.2,388.5,1108.2,388.5z"/>
		</g>
		<g>
			<rect x="717.6" y="432.4" class="st2" width="19" height="95.8"/>
			<rect x="775.5" y="431.5" class="st2" width="19" height="95.8"/>
			<path class="st2" d="M756,392.2c-21.2,0-38.4,17.6-38.4,39.3c0,21.7,17.2,39.3,38.4,39.3c21.2,0,38.4-17.6,38.4-39.3
				C794.4,409.8,777.2,392.2,756,392.2z"/>
			<path class="st1" d="M755.6,402.5c-14.9,0-27,12.4-27,27.7s12.1,27.7,27,27.7c14.9,0,27-12.4,27-27.7S770.5,402.5,755.6,402.5z"
				/>
			<ellipse class="st0" cx="755.4" cy="430.5" rx="21.5" ry="22"/>
			<rect x="717.6" y="432.4" class="st1" width="77.1" height="94.8"/>
			<rect x="736.6" y="460" class="st5" width="39.2" height="67.3"/>
			<rect x="755.7" y="460" class="st2" width="1.6" height="67.3"/>
			<rect x="717.6" y="432.4" class="st2" width="77.2" height="17.8"/>
			<rect x="717.5" y="519.3" class="st2" width="18.9" height="8"/>
			<rect x="775.7" y="519.3" class="st2" width="18.9" height="8"/>
			<rect x="717.7" y="450" class="st2" width="9.8" height="69.4"/>
			<rect x="731.8" y="450" class="st2" width="4.6" height="69.4"/>
			<rect x="775.7" y="450" class="st2" width="4.6" height="69.4"/>
			<rect x="785" y="450" class="st2" width="9.8" height="69.4"/>
			<rect x="735.5" y="457.4" class="st2" width="41.7" height="2.6"/>
			<rect x="736.4" y="486.4" class="st2" width="39.6" height="1.7"/>
		</g>
		<g>
			<rect x="996.1" y="509.5" class="st2" width="77.5" height="8.7"/>
			<rect x="1004.5" y="518.2" class="st2" width="60.8" height="6.8"/>
			<rect x="995.7" y="392.2" class="st2" width="77.2" height="9"/>
			<rect x="1004.8" y="401.2" class="st2" width="60.1" height="109.5"/>
			<rect x="1011.1" y="405.8" class="st3" width="47.2" height="100.2"/>
			<rect x="1015.4" y="411" class="st5" width="38.9" height="92.1"/>
			<rect x="1040.8" y="411" class="st2" width="2" height="92.1"/>
			<rect x="1026.1" y="411" class="st2" width="2" height="92.1"/>
			<rect x="1015.4" y="433" class="st2" width="38.9" height="2"/>
			<rect x="1015.4" y="456.8" class="st2" width="38.9" height="2"/>
			<rect x="1015.4" y="480.6" class="st2" width="38.9" height="2"/>
			<polygon class="st2" points="992.9,385.6 995.7,388.5 1072.7,388.5 1075.7,385.6 1034.3,370.2 			"/>
			<rect x="995.7" y="388.5" class="st2" width="77.2" height="3.3"/>
			<polygon class="st0" points="1003.3,388.5 1065.3,388.5 1034.3,378.9 			"/>
		</g>
		<polygon class="st6" points="379.9,541.7 863.8,541.7 968.1,231.5 968.1,184.9 534.7,184.9 		"/>
		<rect x="485.2" y="527.3" class="st2" width="532.3" height="44.4"/>
		<rect x="503.4" y="502.1" class="st2" width="51.8" height="26.9"/>
		<rect x="651.6" y="502.1" class="st2" width="51.8" height="26.9"/>
		<rect x="799.9" y="502.1" class="st2" width="51.8" height="26.9"/>
		<rect x="948.1" y="502.1" class="st2" width="51.8" height="26.9"/>
		<polygon class="st2" points="516.7,192.4 514.3,502.3 544.3,502.3 541.8,192.4 		"/>
		<polygon class="st2" points="961.5,192.4 959,502.3 989,502.3 986.5,192.4 		"/>
		<polygon class="st2" points="813.2,192.4 810.8,502.3 840.7,502.3 838.3,192.4 		"/>
		<polygon class="st2" points="665,192.4 662.5,502.3 692.5,502.3 690.1,192.4 		"/>
		<rect x="504.8" y="132.9" class="st2" width="489.4" height="59.5"/>
		<path class="st2" d="M544.2,192.4h-29.9c-3.9,0-7,3.2-7,7c0,3.9,3.2,7,7,7h29.9c3.9,0,7-3.2,7-7
			C551.3,195.5,548.1,192.4,544.2,192.4z"/>
		<path class="st2" d="M692.5,192.4h-29.9c-3.9,0-7,3.2-7,7c0,3.9,3.2,7,7,7h29.9c3.9,0,7-3.2,7-7
			C699.5,195.5,696.3,192.4,692.5,192.4z"/>
		<path class="st2" d="M840.7,192.4h-29.9c-3.9,0-7,3.2-7,7c0,3.9,3.2,7,7,7h29.9c3.9,0,7-3.2,7-7
			C847.7,195.5,844.6,192.4,840.7,192.4z"/>
		<path class="st2" d="M988.9,192.4h-29.9c-3.9,0-7,3.2-7,7c0,3.9,3.2,7,7,7h29.9c3.9,0,7-3.2,7-7
			C996,195.5,992.8,192.4,988.9,192.4z"/>
		<polygon class="st6" points="521.4,117.7 546.3,117.7 740.2,33.7 926.7,117.7 980.8,117.7 751.1,16.3 		"/>
		<rect x="504.8" y="132.9" class="st1" width="489.4" height="11.3"/>
		<polygon class="st5" points="745.5,365.9 745.5,385.6 745.5,405.3 757.4,405.3 769.4,405.3 769.4,385.6 769.4,365.9 757.4,359.6 
					"/>
		<g>
			<rect x="756.2" y="220.4" class="st5" width="2.4" height="146.3"/>
			<path class="st5" d="M758.6,357.7h-2.6c-1.2,0-2.2,1-2.2,2.2s1,2.2,2.2,2.2h2.6c1.2,0,2.2-1,2.2-2.2S759.8,357.7,758.6,357.7z"/>
			<rect x="746.2" y="367.2" class="st6" width="5.8" height="33.8"/>
			<rect x="753.1" y="367.2" class="st6" width="8.3" height="33.8"/>
			<rect x="762.6" y="367.2" class="st6" width="5.8" height="33.8"/>
			<path class="st5" d="M757.3,219.2c-2,0-3.7,0.7-3.7,1.5s1.7,1.5,3.7,1.5c2,0,3.7-0.7,3.7-1.5S759.3,219.2,757.3,219.2z"/>
			<path class="st5" d="M757.3,235.8c-2,0-3.7,0.7-3.7,1.5c0,0.8,1.7,1.5,3.7,1.5c2,0,3.7-0.7,3.7-1.5
				C761,236.5,759.3,235.8,757.3,235.8z"/>
			<rect x="753.6" y="220.7" class="st5" width="7.4" height="16.6"/>
		</g>
	</g>
	<g>
		<g>
			<path class="st7" d="M256.6,479.2c-11.3,2.5-25.8-11.8-28.4-28.7c-2.6-16.9-7.8-27.7-18.7-26.8c-10.9,1-12.9,0.8-23.8,0
				c-10.9-0.8,6.6-20.2-13.1-29.3c-19.7-9.1-27.8-8-35.3,4.8c-7.5,12.8-22.6,41.7-31.3,28.8c-8.7-12.9-36.1-14.6-40-4.5
				c-3.9,10.1-22.9,15.3-16.6,27.4c6.4,12.2,2.9,30.6-16.2,29c-19.1-1.5-41.4,4.2-30.3,18.1c11.1,14,34.3,53.1,34.3,53.1
				c8,4.3,20.3,12.8,28.3,2.8c8-9.9,13.9-18,20.6-14.3c6.6,3.6,2.8,21.4,16.3,24.4c13.5,3.1,32.3-5.4,31.6-6.2
				c-0.8-0.8,29.2-14.2,42.1-15.2c12.9-1,44.1-18.3,42.3-6.2c-1.8,12.1,9.1,23.2,21.3,26c12.1,2.8,37.5,0.2,33.5-8.7
				c-4-8.9-6.8-25.7,3.5-24.6c10.3,1.1,15.4-9.3,13.2-25C287.6,488.5,267.9,476.7,256.6,479.2z"/>
			<path class="st8" d="M239.7,493.1c-9.9,2.2-22.7-10.4-24.9-25.2c-2.2-14.8-6.9-24.3-16.4-23.5c-9.6,0.8-11.3,0.7-20.9,0
				c-9.6-0.7,5.8-17.7-11.5-25.7c-17.3-7.9-24.4-7-31,4.2c-6.6,11.2-19.8,36.6-27.4,25.3c-7.6-11.3-31.7-12.8-35.1-4
				c-3.4,8.9-20.1,13.4-14.6,24.1c5.6,10.7,2.5,26.8-14.2,25.5c-16.7-1.4-36.3,3.7-26.6,15.9c9.8,12.3,17.6,55.2,17.6,55.2
				c7,3.8,175.2,0.9,190.1,0c10.9-0.7,32.9,1.5,29.4-6.3c-3.5-7.8-6-22.6,3-21.6c9,1,13.6-8.2,11.6-22
				C266.9,501.2,249.6,490.8,239.7,493.1z"/>
		</g>
		<g>
			<path class="st7" d="M336.7,509.2c-7.4,1.6-16.8-7.7-18.5-18.7c-1.7-11-5.1-18-12.2-17.4c-7.1,0.6-8.4,0.5-15.5,0
				c-7.1-0.5,4.3-13.2-8.5-19.1c-12.8-5.9-18.1-5.2-23,3.1c-4.9,8.3-14.7,27.1-20.3,18.7c-5.6-8.4-23.5-9.5-26-3
				c-2.5,6.6-14.9,9.9-10.8,17.9c4.1,7.9,1.9,19.9-10.5,18.9c-12.4-1-26.9,2.7-19.7,11.8c7.2,9.1,22.3,34.6,22.3,34.6
				c5.2,2.8,13.2,8.3,18.4,1.9c5.2-6.5,9.1-11.7,13.4-9.3c4.3,2.4,1.8,13.9,10.6,15.9c8.8,2,21-3.5,20.5-4c-0.5-0.5,19-9.2,27.4-9.9
				c8.4-0.7,28.7-11.9,27.5-4c-1.2,7.9,5.9,15.1,13.8,16.9c7.9,1.8,24.4,0.1,21.8-5.7c-2.6-5.8-4.4-16.7,2.2-16
				c6.7,0.7,10-6,8.6-16.3C356.9,515.3,344.1,507.6,336.7,509.2z"/>
			<path class="st8" d="M325.7,518.2c-6.5,1.4-14.7-6.7-16.2-16.4c-1.5-9.6-4.5-15.8-10.7-15.3c-6.2,0.6-7.4,0.4-13.6,0
				c-6.2-0.4,3.8-11.5-7.5-16.7c-11.2-5.2-15.9-4.6-20.1,2.7c-4.3,7.3-12.9,23.8-17.9,16.5c-4.9-7.4-20.6-8.4-22.8-2.6
				c-2.2,5.8-13.1,8.7-9.5,15.7c3.6,6.9,1.7,17.5-9.2,16.6c-10.9-0.9-23.6,2.4-17.3,10.4c6.4,8,11.5,35.9,11.5,35.9
				c4.6,2.5,114,0.6,123.7,0c7.1-0.4,21.4,1,19.1-4.1c-2.3-5.1-3.9-14.7,2-14c5.9,0.6,8.8-5.3,7.6-14.3
				C343.5,523.6,332.2,516.8,325.7,518.2z"/>
		</g>
		<g>
			<path class="st7" d="M1458.4,479.9c-19.1,1.5-22.5-16.9-16.2-29c6.3-12.2-12.7-17.3-16.6-27.4c-3.9-10.1-31.3-8.3-40,4.5
				c-8.7,12.9-23.8-16-31.3-28.8c-7.5-12.8-15.6-13.8-35.3-4.8c-19.7,9.1-2.1,28.5-13.1,29.3c-11,0.8-12.9,1-23.8,0
				c-10.9-1-16.2,9.9-18.7,26.8c-2.6,16.9-17.1,31.2-28.4,28.7c-11.3-2.5-31,9.3-33.3,25c-2.2,15.7,3,26.1,13.2,25
				c10.3-1.1,7.5,15.7,3.5,24.6c-4,8.9,21.4,11.5,33.5,8.7c12.1-2.8,23.1-13.9,21.3-26c-1.8-12.1,29.4,5.2,42.3,6.2
				c12.9,1,42.8,14.4,42.1,15.2c-0.8,0.8,18.1,9.2,31.6,6.2c13.5-3.1,9.7-20.8,16.3-24.4c6.6-3.6,12.5,4.4,20.6,14.3
				c8,9.9,20.3,1.4,28.3-2.8c0,0,23.2-39.1,34.3-53.1C1499.7,484.1,1477.4,478.4,1458.4,479.9z"/>
			<path class="st8" d="M1447.9,493.7c-16.7,1.3-19.8-14.8-14.2-25.5c5.6-10.7-11.2-15.2-14.6-24.1c-3.4-8.9-27.5-7.3-35.1,4
				c-7.6,11.3-20.9-14-27.4-25.3c-6.6-11.2-13.7-12.1-31-4.2c-17.3,8-1.9,25-11.5,25.7c-9.6,0.7-11.3,0.9-20.9,0
				c-9.6-0.8-14.2,8.7-16.4,23.5c-2.2,14.8-15,27.4-24.9,25.2c-9.9-2.2-27.2,8.2-29.2,21.9c-2,13.8,2.6,22.9,11.6,22
				c9-1,6.5,13.8,3,21.6c-3.5,7.8,18.5,5.6,29.4,6.3c14.9,0.9,183.1,3.8,190.1,0c0,0,7.9-42.9,17.6-55.2
				C1484.2,497.4,1464.6,492.4,1447.9,493.7z"/>
		</g>
		<g>
			<path class="st7" d="M1300.2,509.7c-12.4,1-14.7-11-10.5-18.9c4.1-7.9-8.3-11.3-10.8-17.9c-2.5-6.6-20.4-5.4-26,3
				c-5.6,8.4-15.5-10.4-20.3-18.7c-4.9-8.3-10.2-9-23-3.1c-12.8,5.9-1.4,18.6-8.5,19.1c-7.1,0.5-8.4,0.6-15.5,0
				c-7.1-0.6-10.5,6.4-12.2,17.4c-1.7,11-11.1,20.3-18.5,18.7c-7.4-1.6-20.2,6.1-21.7,16.3c-1.4,10.2,1.9,17,8.6,16.3
				c6.7-0.7,4.8,10.2,2.2,16c-2.6,5.8,13.9,7.5,21.8,5.7c7.9-1.8,15-9,13.8-16.9c-1.2-7.9,19.2,3.4,27.5,4
				c8.4,0.7,27.9,9.4,27.4,9.9c-0.5,0.5,11.8,6,20.5,4c8.8-2,6.3-13.5,10.6-15.9c4.3-2.4,8.2,2.9,13.4,9.3
				c5.2,6.5,13.2,0.9,18.4-1.9c0,0,15.1-25.5,22.3-34.6C1327.2,512.4,1312.6,508.7,1300.2,509.7z"/>
			<path class="st8" d="M1293.4,518.7c-10.9,0.9-12.9-9.6-9.2-16.6c3.6-6.9-7.3-9.9-9.5-15.7c-2.2-5.8-17.9-4.8-22.8,2.6
				c-4.9,7.4-13.6-9.1-17.9-16.5c-4.3-7.3-8.9-7.9-20.1-2.7c-11.2,5.2-1.2,16.3-7.5,16.7c-6.2,0.4-7.4,0.6-13.6,0
				c-6.2-0.5-9.2,5.7-10.7,15.3c-1.5,9.6-9.7,17.8-16.2,16.4c-6.5-1.4-17.7,5.3-19,14.3c-1.3,9,1.7,14.9,7.5,14.3
				c5.9-0.6,4.3,9,2,14c-2.3,5.1,12,3.6,19.1,4.1c9.7,0.6,119.2,2.5,123.7,0c0,0,5.1-27.9,11.5-35.9
				C1317,521.1,1304.3,517.8,1293.4,518.7z"/>
		</g>
	</g>
</g>
</svg>
